<svg xmlns="http://www.w3.org/2000/svg" viewBox="0 0 720 320" role="img">
<title>Figure 5.1 — forward vs central difference</title>
<rect width="100%" height="100%" fill="#fafafa"/>
<rect x="20" y="36" width="320" height="260" fill="#fff" stroke="#555"/>
<text x="180.0" y="26" font-size="13" text-anchor="middle">forward difference (slanted chord)</text>
<path d="M48.0,265.3 L51.9,260.2 L55.7,255.1 L59.6,250.1 L63.4,245.2 L67.3,240.4 L71.1,235.6 L75.0,231.0 L78.9,226.4 L82.7,221.9 L86.6,217.4 L90.4,213.1 L94.3,208.8 L98.1,204.6 L102.0,200.5 L105.9,196.4 L109.7,192.4 L113.6,188.5 L117.4,184.7 L121.3,180.9 L125.1,177.2 L129.0,173.5 L132.9,170.0 L136.7,166.5 L140.6,163.0 L144.4,159.7 L148.3,156.4 L152.1,153.1 L156.0,150.0 L159.9,146.8 L163.7,143.8 L167.6,140.8 L171.4,137.9 L175.3,135.0 L179.1,132.2 L183.0,129.5 L186.9,126.8 L190.7,124.1 L194.6,121.6 L198.4,119.1 L202.3,116.6 L206.1,114.2 L210.0,111.8 L213.9,109.5 L217.7,107.3 L221.6,105.1 L225.4,103.0 L229.3,100.9 L233.1,98.9 L237.0,96.9 L240.9,94.9 L244.7,93.1 L248.6,91.2 L252.4,89.4 L256.3,87.7 L260.1,86.0 L264.0,84.4 L267.9,82.8 L271.7,81.2 L275.6,79.7 L279.4,78.2 L283.3,76.8 L287.1,75.4 L291.0,74.1 L294.9,72.8 L298.7,71.6 L302.6,70.4 L306.4,69.2 L310.3,68.1 L314.1,67.0" fill="none" stroke="#455a64" stroke-width="2"/>
<line x1="183.0" y1="129.46135800618381" x2="250.49999999999997" y2="90.31999685608952" stroke="#c62828" stroke-width="2.2"/>
<circle cx="183.0" cy="129.46135800618381" r="3.5" fill="#212121"/>
<circle cx="250.49999999999997" cy="90.31999685608952" r="3" fill="#c62828"/>
<text x="179.0" y="121.46135800618381" font-size="11">t</text>
<text x="242.49999999999997" y="82.31999685608952" font-size="11" fill="#c62828">t+h</text>
<rect x="380" y="36" width="320" height="260" fill="#fff" stroke="#555"/>
<text x="540.0" y="26" font-size="13" text-anchor="middle">central difference (symmetric chord)</text>
<path d="M408.0,265.3 L411.9,260.2 L415.7,255.1 L419.6,250.1 L423.4,245.2 L427.3,240.4 L431.1,235.6 L435.0,231.0 L438.9,226.4 L442.7,221.9 L446.6,217.4 L450.4,213.1 L454.3,208.8 L458.1,204.6 L462.0,200.5 L465.9,196.4 L469.7,192.4 L473.6,188.5 L477.4,184.7 L481.3,180.9 L485.1,177.2 L489.0,173.5 L492.9,170.0 L496.7,166.5 L500.6,163.0 L504.4,159.7 L508.3,156.4 L512.1,153.1 L516.0,150.0 L519.9,146.8 L523.7,143.8 L527.6,140.8 L531.4,137.9 L535.3,135.0 L539.1,132.2 L543.0,129.5 L546.9,126.8 L550.7,124.1 L554.6,121.6 L558.4,119.1 L562.3,116.6 L566.1,114.2 L570.0,111.8 L573.9,109.5 L577.7,107.3 L581.6,105.1 L585.4,103.0 L589.3,100.9 L593.1,98.9 L597.0,96.9 L600.9,94.9 L604.7,93.1 L608.6,91.2 L612.4,89.4 L616.3,87.7 L620.1,86.0 L624.0,84.4 L627.9,82.8 L631.7,81.2 L635.6,79.7 L639.4,78.2 L643.3,76.8 L647.1,75.4 L651.0,74.1 L654.9,72.8 L658.7,71.6 L662.6,70.4 L666.4,69.2 L670.3,68.1 L674.1,67.0" fill="none" stroke="#455a64" stroke-width="2"/>
<line x1="509.25" y1="155.54952706120127" x2="576.75" y2="107.85587564456961" stroke="#1565c0" stroke-width="2.2"/>
<circle cx="543.0" cy="129.46135800618381" r="3.5" fill="#212121"/>
<circle cx="509.25" cy="155.54952706120127" r="3" fill="#1565c0"/>
<circle cx="576.75" cy="107.85587564456961" r="3" fill="#1565c0"/>
<text x="539.0" y="121.46135800618381" font-size="11">t</text>
</svg>