# Exported from Wings 3D 1.2
mtllib chess-king.mtl
o cylinder1_copy2
#626 vertices, 615 faces
v 0.90062914 -2.04813043 1.8594067e-17
v 0.83207283 -2.04813043 0.34465585
v 0.63684097 -2.04813043 0.63684097
v 0.34465585 -2.04813043 0.83207283
v -4.4408921e-16 -2.04813043 0.90062914
v -0.34465585 -2.04813043 0.83207283
v -0.63684097 -2.04813043 0.63684097
v -0.83207283 -2.04813043 0.34465585
v -0.90062914 -2.04813043 1.2885743e-16
v -0.83207283 -2.04813043 -0.34465585
v -0.63684097 -2.04813043 -0.63684097
v -0.34465585 -2.04813043 -0.83207283
v -4.4408921e-16 -2.04813043 -0.90062914
v 0.34465585 -2.04813043 -0.83207283
v 0.63684097 -2.04813043 -0.63684097
v 0.83207283 -2.04813043 -0.34465585
v 0.84151326 -1.92748739 3.4169773e-4
v 0.77758764 -1.92748739 0.32171750
v 0.59546276 -1.92748739 0.59467944
v 0.32256188 -1.92748739 0.77728589
v 5.5388885e-4 -1.92748739 0.84155762
v -0.32153843 -1.92748739 0.77770982
v -0.59467944 -1.92748739 0.59546276
v -0.77728589 -1.92748739 0.32256188
v -0.84142877 -1.92748739 -1.7090547e-2
v -0.77736929 -1.92737144 -0.32222865
v -0.59467944 -1.92748739 -0.59546276
v -0.32153843 -1.92748739 -0.77770982
v 5.5388885e-4 -1.92748739 -0.84155762
v 0.32256188 -1.92748739 -0.77728589
v 0.59546276 -1.92748739 -0.59467944
v 0.77770982 -1.92748739 -0.32153843
v 0.65352743 -1.62598985 -3.3530872e-4
v 0.49537760 -1.34815171 2.1415818e-4
v 0.60375330 -1.62600373 0.25015917
v 0.45754578 -1.34816259 0.18960937
v 0.46216827 -1.62600291 0.46209096
v 0.35013794 -1.34816325 0.35007082
v 0.25012021 -1.62600291 0.60379817
v 0.18949028 -1.34816325 0.45722101
v -1.5573072e-5 -1.62600291 0.65357127
v 6.6587485e-5 -1.34816325 0.49473767
v -0.25015825 -1.62600291 0.60383279
v -0.18929509 -1.34816325 0.45690925
v -0.46222379 -1.62600220 0.46215747
v -0.34976615 -1.34816325 0.34949476
v -0.60397532 -1.62601389 0.24997087
v -0.45692089 -1.34817662 0.18883569
v -0.65362093 -1.62600947 -1.2861633e-2
v -0.49443236 -1.34818024 -7.0980987e-4
v -0.60398886 -1.62605701 -0.25006760
v -0.45691734 -1.34817225 -0.18918406
v -0.46222866 -1.62600758 -0.46229970
v -0.34976660 -1.34816709 -0.34983317
v -0.25015814 -1.62600291 -0.60398094
v -0.18929509 -1.34816325 -0.45724775
v -1.5573072e-5 -1.62600291 -0.65371936
v 6.6587485e-5 -1.34816325 -0.49507618
v 0.25012021 -1.62600291 -0.60394626
v 0.18949028 -1.34816325 -0.45755951
v 0.46216821 -1.62600291 -0.46223909
v 0.35013794 -1.34816325 -0.35040933
v 0.60378258 -1.62600291 -0.25026477
v 0.45755243 -1.34816325 -0.18993826
v 0.31759093 -1.12536672 7.2290084e-3
v 0.29622992 -1.12531648 0.11420920
v 0.23004298 -1.12531672 0.21821368
v 0.12908968 -1.12531672 0.28897508
v 8.7417715e-3 -1.12531672 0.31571693
v -0.11267887 -1.12531672 0.29436803
v -0.21668696 -1.12531677 0.22817865
v -0.28743728 -1.12526090 0.12729539
v -0.31420133 -1.12526220 -7.6013806e-3
v -0.28745248 -1.12532430 -0.12754877
v -0.21668712 -1.12531805 -0.22851644
v -0.11267889 -1.12531675 -0.29470581
v 8.7417715e-3 -1.12531672 -0.31605472
v 0.12908968 -1.12531672 -0.28931287
v 0.23004299 -1.12531672 -0.21855147
v 0.29623103 -1.12531672 -0.11454545
v 0.28330581 -0.57771251 -3.7322479e-5
v 0.26169991 -0.57771409 0.10846750
v 0.20021893 -0.57771418 0.20043899
v 0.10822053 -0.57771418 0.26188272
v -2.8841171e-4 -0.57771418 0.28344307
v -0.10878839 -0.57771418 0.26183766
v -0.20076126 -0.57771418 0.20035571
v -0.26220566 -0.57771611 0.10835566
v -0.28376525 -0.57771664 -1.7088628e-4
v -0.26220514 -0.57771548 -0.10854258
v -0.20076133 -0.57771474 -0.20054119
v -0.10878839 -0.57771418 -0.26202315
v -2.8841171e-4 -0.57771418 -0.28362856
v 0.10822053 -0.57771418 -0.26206821
v 0.20021893 -0.57771418 -0.20062448
v 0.26170087 -0.57771418 -0.10865160
v 0.29489939 0.71157836 0.12226860
v 0.31923466 0.71157836 -7.3037589e-5
v 0.29489939 0.71157836 -0.12241467
v 0.22559842 0.71157836 -0.22613090
v 0.12188219 0.71157836 -0.29543187
v -4.5944512e-4 0.71157836 -0.31976714
v -0.12280108 0.71157836 -0.29543187
v -0.22651731 0.71157836 -0.22613090
v -0.29581828 0.71157836 -0.12241467
v -0.32015355 0.71157836 -7.3037589e-5
v -0.29581828 0.71157836 0.12226860
v -0.22651731 0.71157836 0.22598483
v -0.12280108 0.71157836 0.29528580
v -4.5944512e-4 0.71157836 0.31962106
v 0.12188219 0.71157836 0.29528580
v 0.22559842 0.71157836 0.22598483
v 0.33981571 0.79202847 0.14087355
v 0.36785173 0.79202847 -7.3037589e-5
v 0.33981571 0.79202847 -0.14101962
v 0.25997589 0.79202847 -0.26050837
v 0.14048714 0.79202847 -0.34034819
v -4.5944512e-4 0.79202847 -0.36838421
v -0.14140603 0.79202847 -0.34034819
v -0.26089478 0.79202847 -0.26050837
v -0.34073460 0.79202847 -0.14101962
v -0.36877062 0.79202847 -7.3037589e-5
v -0.34073460 0.79202847 0.14087355
v -0.26089478 0.79202847 0.26036229
v -0.14140603 0.79202847 0.34020212
v -4.5944512e-4 0.79202847 0.36823814
v 0.14048714 0.79202847 0.34020212
v 0.25997589 0.79202847 0.26036229
v 0.84231997 -1.76437797 4.7370640e-3
v 0.88983150 -1.84230261 7.5193656e-3
v 0.77614519 -1.76438827 0.32732570
v 0.81904833 -1.84232080 0.34789121
v 0.59195116 -1.76437432 0.59935003
v 0.62376274 -1.84232076 0.63471973
v 0.31750403 -1.76435319 0.78027832
v 0.33338477 -1.84232076 0.82510826
v -5.2746976e-3 -1.76432859 0.84239938
v -7.7478948e-3 -1.84232076 0.88988146
v -0.32723904 -1.76430424 0.77627467
v -0.34770101 -1.84232076 0.81917827
v -0.59938117 -1.76428363 0.59198965
v -0.63471980 -1.84232076 0.62376262
v -0.78035585 -1.76429198 0.31740145
v -0.82518644 -1.84234577 0.33312148
v -0.84236002 -1.76427209 -1.1946783e-2
v -0.88983538 -1.84234584 -1.0370053e-2
v -0.78031239 -1.76429959 -0.31751130
v -0.82511602 -1.84233749 -0.33334920
v -0.59938352 -1.76428837 -0.59198918
v -0.63472551 -1.84232783 -0.62375628
v -0.32723665 -1.76430131 -0.77627758
v -0.34770101 -1.84232076 -0.81917827
v -5.2743637e-3 -1.76432535 -0.84240114
v -7.7478948e-3 -1.84232076 -0.88988146
v 0.31750216 -1.76435014 -0.78028071
v 0.33338477 -1.84232076 -0.82510826
v 0.59194808 -1.76437191 -0.59935449
v 0.62376262 -1.84232076 -0.63471980
v 0.77624391 -1.76439015 -0.32719636
v 0.81917835 -1.84232076 -0.34770090
v 0.43420617 -1.13856801 -0.17459482
v 0.44791249 -1.15476328 -0.18194670
v 0.33442087 -1.13856928 -0.32737048
v 0.34426564 -1.15476471 -0.33940443
v 0.18376075 -1.13857145 -0.43033933
v 0.18824712 -1.15476672 -0.44521578
v 5.1602389e-3 -1.13857421 -0.46781836
v 3.6124240e-3 -1.15476898 -0.48326703
v -0.17419307 -1.13857714 -0.43409636
v -0.18152951 -1.15477117 -0.44776508
v -0.32699271 -1.13858254 -0.33430157
v -0.33899269 -1.15477588 -0.34411459
v -0.42997460 -1.13859297 -0.18360995
v -0.44480744 -1.15478553 -0.18808409
v -0.46743894 -1.13858050 -5.6718097e-3
v -0.48285042 -1.15478836 -4.2008318e-3
v -0.42997505 -1.13857856 0.18337210
v -0.44480684 -1.15478387 0.18782642
v -0.32699980 -1.13858183 0.33404477
v -0.33899241 -1.15477393 0.34385319
v -0.17419911 -1.13857995 0.43384504
v -0.18152969 -1.15477289 0.44750363
v 5.1592122e-3 -1.13857736 0.46756996
v 3.6123191e-3 -1.15477116 0.48300571
v 0.18376536 -1.13857446 0.43008945
v 0.18824716 -1.15476900 0.44495448
v 0.33442843 -1.13857167 0.32711555
v 0.34426580 -1.15476674 0.33914306
v 0.43421076 -1.13856894 0.17433617
v 0.44791042 -1.15476421 0.18168832
v 0.46809944 -1.13860465 -1.8461597e-3
v 0.48341399 -1.15475415 -3.4745278e-3
v 0.87332263 -1.91494340 5.0410202e-3
v 0.89069428 -1.88871823 7.6189524e-3
v 0.89974455 -1.96794030 -6.3045069e-3
v 0.88162722 -1.94219742 -5.2957603e-3
v 0.80500078 -1.91496846 0.33875905
v 0.81988599 -1.88877869 0.34812948
v 0.82884295 -1.96794030 0.35014194
v 0.81249074 -1.94219742 0.34227677
v 0.61427842 -1.91496840 0.62090769
v 0.62444893 -1.88877877 0.63525808
v 0.63175751 -1.96794030 0.64067343
v 0.61971362 -1.94219603 0.62710957
v 0.32990809 -1.91496840 0.80871809
v 0.33381271 -1.88877877 0.82586823
v 0.33849273 -1.96794030 0.83366821
v 0.33255628 -1.94219603 0.81652783
v -4.6876870e-3 -1.91496840 0.87340845
v -7.6433569e-3 -1.88877877 0.89074734
v -6.3045069e-3 -1.96794030 0.89974455
v -5.2297300e-3 -1.94219603 0.88163713
v -0.33856980 -1.91496840 0.80513029
v -0.34793579 -1.88877877 0.82001825
v -0.35014194 -1.96794030 0.82884295
v -0.34221956 -1.94219603 0.81252517
v -0.62090774 -1.91496840 0.61427835
v -0.63525816 -1.88877877 0.62444882
v -0.64067343 -1.96794030 0.63175751
v -0.62710957 -1.94219603 0.61971362
v -0.80877696 -1.91497299 0.32970962
v -0.82595212 -1.88878789 0.33351640
v -0.83366821 -1.96794030 0.33849273
v -0.81652783 -1.94219603 0.33255628
v -0.87328232 -1.91499075 -1.2722095e-2
v -0.89069170 -1.88878787 -1.0310548e-2
v -0.89974455 -1.96794030 -6.3045069e-3
v -0.88166863 -1.94222213 -1.0664844e-2
v -0.80873600 -1.91493881 -0.32976074
v -0.82587543 -1.88878705 -0.33377544
v -0.83366821 -1.96794030 -0.33849273
v -0.81656535 -1.94216468 -0.33245649
v -0.62091180 -1.91497155 -0.61427315
v -0.63526455 -1.88878350 -0.62444143
v -0.64067343 -1.96794030 -0.63175751
v -0.62710957 -1.94219603 -0.61971362
v -0.33856980 -1.91496840 -0.80513029
v -0.34793579 -1.88877877 -0.82001825
v -0.35014194 -1.96794030 -0.82884295
v -0.34221956 -1.94219603 -0.81252517
v -4.6876870e-3 -1.91496840 -0.87340845
v -7.6433569e-3 -1.88877877 -0.89074734
v -6.3045069e-3 -1.96794030 -0.89974455
v -5.2297300e-3 -1.94219603 -0.88163713
v 0.32990809 -1.91496840 -0.80871809
v 0.33381271 -1.88877877 -0.82586823
v 0.33849273 -1.96794030 -0.83366821
v 0.33255628 -1.94219603 -0.81652783
v 0.61427835 -1.91496840 -0.62090774
v 0.62444882 -1.88877877 -0.63525816
v 0.63175751 -1.96794030 -0.64067343
v 0.61971362 -1.94219603 -0.62710957
v 0.80513035 -1.91496840 -0.33856973
v 0.82001833 -1.88877877 -0.34793568
v 0.82884295 -1.96794030 -0.35014194
v 0.81252517 -1.94219603 -0.34221956
v 0.43343198 0.73692547 0.17965068
v 0.41509519 0.71597743 0.17205533
v 0.46918125 0.73692547 -7.3037589e-5
v 0.44933366 0.71597743 -7.3037589e-5
v 0.43343198 0.73692547 -0.17979675
v 0.41509519 0.71597743 -0.17220141
v 0.33162668 0.73692547 -0.33215916
v 0.31759231 0.71597743 -0.31812479
v 0.17926427 0.73692547 -0.43396447
v 0.17166892 0.71597743 -0.41562768
v -4.5944512e-4 0.73692547 -0.46971373
v -4.5944512e-4 0.71597743 -0.44986614
v -0.18018316 0.73692547 -0.43396447
v -0.17258781 0.71597743 -0.41562768
v -0.33254557 0.73692547 -0.33215916
v -0.31851120 0.71597743 -0.31812479
v -0.43435087 0.73692547 -0.17979675
v -0.41601408 0.71597743 -0.17220141
v -0.47010014 0.73692547 -7.3037589e-5
v -0.45025255 0.71597743 -7.3037589e-5
v -0.43435087 0.73692547 0.17965068
v -0.41601408 0.71597743 0.17205533
v -0.33254557 0.73692547 0.33201308
v -0.31851120 0.71597743 0.31797871
v -0.18018316 0.73692547 0.43381839
v -0.17258781 0.71597743 0.41548160
v -4.5944512e-4 0.73692547 0.46956766
v -4.5944512e-4 0.71597743 0.44972006
v 0.17926427 0.73692547 0.43381839
v 0.17166892 0.71597743 0.41548160
v 0.33162668 0.73692547 0.33201308
v 0.31759231 0.71597743 0.31797871
v 0.43343198 0.76668136 0.17965068
v 0.41509519 0.78762940 0.17205533
v 0.46918125 0.76668136 -7.3037589e-5
v 0.44933366 0.78762940 -7.3037589e-5
v 0.43343198 0.76668136 -0.17979675
v 0.41509519 0.78762940 -0.17220141
v 0.33162668 0.76668136 -0.33215916
v 0.31759231 0.78762940 -0.31812479
v 0.17926427 0.76668136 -0.43396447
v 0.17166892 0.78762940 -0.41562768
v -4.5944512e-4 0.76668136 -0.46971373
v -4.5944512e-4 0.78762940 -0.44986614
v -0.18018316 0.76668136 -0.43396447
v -0.17258781 0.78762940 -0.41562768
v -0.33254557 0.76668136 -0.33215916
v -0.31851120 0.78762940 -0.31812479
v -0.43435087 0.76668136 -0.17979675
v -0.41601408 0.78762940 -0.17220141
v -0.47010014 0.76668136 -7.3037589e-5
v -0.45025255 0.78762940 -7.3037589e-5
v -0.43435087 0.76668136 0.17965068
v -0.41601408 0.78762940 0.17205533
v -0.33254557 0.76668136 0.33201308
v -0.31851120 0.78762940 0.31797871
v -0.18018316 0.76668136 0.43381839
v -0.17258781 0.78762940 0.41548160
v -4.5944512e-4 0.76668136 0.46956766
v -4.5944512e-4 0.78762940 0.44972006
v 0.17926427 0.76668136 0.43381839
v 0.17166892 0.78762940 0.41548160
v 0.33162668 0.76668136 0.33201308
v 0.31759231 0.78762940 0.31797871
v 0.28755744 0.54322820 -0.11937354
v 0.23806501 0.11304759 -9.8872655e-2
v 0.21997914 0.54322820 -0.22051162
v 0.18210385 0.11304700 -0.18261601
v 0.11884106 0.54322820 -0.28808993
v 9.8355291e-2 0.11304605 -0.23856941
v -4.5944512e-4 0.54322820 -0.31182027
v -4.3075786e-4 0.11304488 -0.25821445
v -0.11975995 0.54322820 -0.28808993
v -9.9215032e-2 0.11304368 -0.23856030
v -0.22089803 0.54322820 -0.22051162
v -0.18295852 0.11304262 -0.18259910
v -0.28847634 0.54322820 -0.11937354
v -0.23891198 0.11304187 -9.8850381e-2
v -0.31220668 0.54322820 -7.3037589e-5
v -0.25855691 0.11304153 -9.2458548e-5
v -0.28847634 0.54322820 0.11922746
v -0.23891209 0.11304167 9.8697330e-2
v -0.22089803 0.54322820 0.22036555
v -0.18295853 0.11304226 0.18244637
v -0.11975995 0.54322820 0.28794385
v -9.9215045e-2 0.11304321 0.23840758
v -4.5944512e-4 0.54322820 0.31167420
v -4.3075779e-4 0.11304438 0.25806172
v 0.11884106 0.54322820 0.28794385
v 9.8355305e-2 0.11304558 0.23841668
v 0.21997914 0.54322820 0.22036555
v 0.18210387 0.11304664 0.18246327
v 0.28755744 0.54322820 0.11922746
v 0.23806482 0.11304739 9.8720188e-2
v 0.31128779 0.54322820 -7.3037589e-5
v 0.25771914 0.11304772 -6.4975768e-5
v 0.26170775 0.32813784 -6.9474146e-5
v 0.24175081 0.32813768 0.10024993
v 0.18492275 0.32813734 0.18529527
v 9.9874893e-2 0.32813685 0.24211986
v -4.4492694e-4 0.32813630 0.26207254
v -0.10076393 0.32813576 0.24211567
v -0.18580945 0.32813533 0.18528749
v -0.24263411 0.32813505 0.10023942
v -0.26258668 0.32813499 -8.2116225e-5
v -0.24263406 0.32813514 -0.10038899
v -0.18580944 0.32813549 -0.18543692
v -0.10076392 0.32813598 -0.24226509
v -4.4492697e-4 0.32813653 -0.26222196
v 9.9874887e-2 0.32813707 -0.24226928
v 0.18492274 0.32813751 -0.18544470
v 0.24175089 0.32813778 -0.10039924
v 0.35564076 0.55226511 -0.14757496
v 0.27208731 0.55226403 -0.27262079
v 0.14704133 0.55226196 -0.35617320
v -4.6012413e-4 0.55225940 -0.38551246
v -0.14796123 0.55225677 -0.35617206
v -0.27300632 0.55225445 -0.27261892
v -0.35655831 0.55225305 -0.14757370
v -0.38589787 0.55225229 -7.3549006e-5
v -0.35655851 0.55225233 0.14742716
v -0.27300625 0.55225366 0.27247277
v -0.14796118 0.55225574 0.35602586
v -4.6012414e-4 0.55225829 0.38536624
v 0.14704128 0.55226093 0.35602700
v 0.27208724 0.55226325 0.27247464
v 0.35564053 0.55226488 0.14742917
v 0.38498083 0.55226539 -7.2676011e-5
v 0.35819650 0.33717515 -6.8645100e-5
v 0.33089422 0.33717448 0.13717553
v 0.25314961 0.33717247 0.25352350
v 0.13679841 0.33716962 0.33126342
v -4.4578047e-4 0.33716638 0.35856001
v -0.13768873 0.33716325 0.33125772
v -0.25403650 0.33716069 0.25351318
v -0.33177639 0.33715907 0.13716209
v -0.35907299 0.33715895 -8.3259486e-5
v -0.33177614 0.33715989 -0.13731212
v -0.25403656 0.33716166 -0.25366266
v -0.13768877 0.33716451 -0.33140724
v -4.4578050e-4 0.33716774 -0.35870955
v 0.13679845 0.33717088 -0.33141294
v 0.25314967 0.33717343 -0.25367298
v 0.33089454 0.33717480 -0.13732452
v 0.43707477 0.44658814 1.4243217e-2
v 0.39829059 0.44658714 0.18086270
v 0.29869665 0.44658457 0.31995586
v 0.15345524 0.44658104 0.41034807
v -1.5321735e-2 0.44657713 0.43827803
v -0.18193947 0.44657341 0.39949388
v -0.32103208 0.44657045 0.29990034
v -0.41142423 0.44656873 0.15465951
v -0.43935472 0.44656866 1.4234637e-2
v -0.41142384 0.44656964 -0.15453340
v -0.32103213 0.44657162 -0.29977319
v -0.18193956 0.44657489 -0.39936675
v -1.5321751e-2 0.44657877 -0.43815094
v 0.15345531 0.44658259 -0.41022096
v 0.29869677 0.44658579 -0.31982867
v 0.39829113 0.44658760 -0.18073474
v 0.40317138 0.45379792 -7.0569053e-5
v 0.37244589 0.45379730 0.15438868
v 0.28495056 0.45379539 0.28533144
v 0.15400577 0.45379267 0.37282365
v -4.5311787e-4 0.45378959 0.40354543
v -0.15491108 0.45378661 0.37281984
v -0.28585338 0.45378417 0.28532473
v -0.37334547 0.45378262 0.15438034
v -0.40406738 0.45378255 -7.8534814e-5
v -0.37334521 0.45378344 -0.15452875
v -0.28585347 0.45378509 -0.28547258
v -0.15491114 0.45378781 -0.37296775
v -4.5311788e-4 0.45379089 -0.40369337
v 0.15400583 0.45379387 -0.37297157
v 0.28495065 0.45379631 -0.28547929
v 0.37244622 0.45379758 -0.15453600
v 0.41796923 0.33713845 -6.8227312e-5
v 0.38611654 0.33713753 0.16005026
v 0.29541445 0.33713472 0.29578948
v 0.15967142 0.33713072 0.38648585
v -4.4657734e-4 0.33712618 0.41833164
v -0.16056295 0.33712178 0.38647887
v -0.29630157 0.33711820 0.29577707
v -0.38699779 0.33711592 0.16003453
v -0.41884367 0.33711580 -8.3848148e-5
v -0.38699727 0.33711711 -0.16018509
v -0.29630169 0.33711955 -0.29592664
v -0.16056304 0.33712355 -0.38662853
v -4.4657737e-4 0.33712809 -0.41848133
v 0.15967151 0.33713249 -0.38663550
v 0.29541458 0.33713607 -0.29593905
v 0.38611714 0.33713795 -0.16019893
v 0.50036325 0.40207570 -6.9417642e-5
v 0.48900261 0.42329202 2.9108061e-3
v 0.46223854 0.40207437 0.19158345
v 0.45059390 0.42329443 0.19004572
v 0.35367420 0.40207011 0.35405613
v 0.34348266 0.42330174 0.34822365
v 0.19119825 0.40206406 0.46261525
v 0.18399176 0.42331341 0.45335291
v -4.5342000e-4 0.40205718 0.50073376
v -3.5773674e-3 0.42332782 0.48943143
v -0.19210346 0.40205053 0.46260886
v -0.19065657 0.42334282 0.45098316
v -0.35457508 0.40204510 0.35404504
v -0.34876771 0.42335608 0.34388221
v -0.46313393 0.40204164 0.19156999
v -0.45385679 0.42336542 0.18444610
v -0.50125269 0.40204153 -8.0503649e-5
v -0.48995570 0.42336531 2.9521414e-3
v -0.46313317 0.40204352 -0.19171973
v -0.45387888 0.42335466 -0.18455329
v -0.35457526 0.40204715 -0.35419331
v -0.34878968 0.42333973 -0.34400679
v -0.19210359 0.40205320 -0.46275726
v -0.19066464 0.42332414 -0.45112032
v -4.5342000e-4 0.40206008 -0.50088222
v -3.5668825e-3 0.42330972 -0.48956767
v 0.19119839 0.40206673 -0.46276365
v 0.18401457 0.42329860 -0.45347552
v 0.35367440 0.40207216 -0.35420440
v 0.34350455 0.42329235 -0.34832800
v 0.46223937 0.40207495 -0.19173040
v 0.45060296 0.42329130 -0.19013667
v 0.49445237 0.36324770 -6.8528084e-5
v 0.47705800 0.34591590 -6.8191531e-5
v 0.45677741 0.36324621 0.18932063
v 0.44070712 0.34591455 0.18266352
v 0.34949492 0.36324160 0.34987388
v 0.33719564 0.34591035 0.33757287
v 0.18893776 0.36323504 0.45715020
v 0.18228223 0.34590439 0.44107807
v -4.5025447e-4 0.36322760 0.49481786
v -4.4852639e-4 0.34589762 0.47742144
v -0.18983639 0.36322039 0.45714268
v -0.18317741 0.34589106 0.44107039
v -0.35038853 0.36321451 0.34986073
v -0.33808580 0.34588571 0.33755937
v -0.45766458 0.36321077 0.18930452
v -0.44159077 0.34588231 0.18264676
v -0.49533250 0.36321059 -8.2646728e-5
v -0.47793433 0.34588215 -8.3554497e-5
v -0.45766382 0.36321274 -0.18945503
v -0.44159004 0.34588411 -0.18279752
v -0.35038873 0.36321674 -0.35000976
v -0.33808598 0.34588774 -0.33770873
v -0.18983654 0.36322329 -0.45729184
v -0.18317754 0.34589370 -0.44121987
v -4.5025450e-4 0.36323074 -0.49496708
v -4.4852642e-4 0.34590047 -0.47757097
v 0.18893791 0.36323794 -0.45729937
v 0.18228236 0.34590703 -0.44122755
v 0.34949513 0.36324381 -0.35002289
v 0.33719582 0.34591237 -0.33772222
v 0.45677826 0.36324689 -0.18946829
v 0.44070793 0.34591516 -0.18281161
v 0.38291434 0.52276590 -0.15887213
v 0.37446507 0.54133105 -0.15537231
v 0.29296164 0.52276479 -0.29349458
v 0.28649471 0.54132993 -0.28702835
v 0.15833878 0.52276261 -0.38344565
v 0.15483847 0.54132774 -0.37499744
v -4.5918553e-4 0.52275994 -0.41503155
v -4.6023095e-4 0.54132506 -0.40588753
v -0.15925661 0.52275719 -0.38344380
v -0.15575849 0.54132229 -0.37499603
v -0.29387810 0.52275476 -0.29349150
v -0.28741361 0.54131984 -0.28702606
v -0.38382863 0.52275331 -0.15886963
v -0.37538220 0.54131838 -0.15537076
v -0.41541492 0.52275251 -7.4427059e-5
v -0.40627265 0.54131758 -7.3633241e-5
v -0.38382887 0.52275254 0.15872269
v -0.37538243 0.54131762 0.15522414
v -0.29387801 0.52275393 0.29334506
v -0.28741353 0.54131901 0.28687988
v -0.15925655 0.52275611 0.38329730
v -0.15575843 0.54132121 0.37484980
v -4.5918554e-4 0.52275878 0.41488503
v -4.6023095e-4 0.54132389 0.40574127
v 0.15833871 0.52276154 0.38329915
v 0.15483841 0.54132666 0.37485121
v 0.29296155 0.52276397 0.29334814
v 0.28649462 0.54132910 0.28688217
v 0.38291405 0.52276568 0.15872616
v 0.37446480 0.54133082 0.15522656
v 0.41450165 0.52276621 -7.2274204e-5
v 0.40535615 0.54133136 -7.2616979e-5
v 0.21126088 1.38379807 8.7624392e-2
v 0.22870498 1.38379807 -7.3037589e-5
v 0.21126088 1.38379807 -8.7770467e-2
v 0.16158428 1.38379807 -0.16211676
v 8.7237985e-2 1.38379807 -0.21179336
v -4.5944512e-4 1.38379807 -0.22923747
v -8.8156875e-2 1.38379807 -0.21179336
v -0.16250317 1.38379807 -0.16211676
v -0.21217977 1.38379807 -8.7770467e-2
v -0.22962387 1.38379807 -7.3037589e-5
v -0.21217977 1.38379807 8.7624392e-2
v -0.16250317 1.38379807 0.16197068
v -8.8156875e-2 1.38379807 0.21164729
v -4.5944512e-4 1.38379807 0.22909139
v 8.7237985e-2 1.38379807 0.21164729
v 0.16158428 1.38379807 0.16197068
v 0.17195507 1.45996158 0.17234148
v 0.17195507 1.45996158 -0.17248756
v -0.17287396 1.45996158 -0.17248756
v -0.17287396 1.45996158 0.17234148
v 0.15126533 1.47116209 0.15165174
v 0.15126533 1.47116209 -0.15179781
v -0.15218422 1.47116209 -0.15179781
v -0.15218422 1.47116209 0.15165174
v 0.11576173 1.47116209 7.6865383e-2
v 0.11576173 1.47116209 -7.7011458e-2
v -0.11668062 1.47116209 -7.7011458e-2
v -0.11668062 1.47116209 7.6865383e-2
v 0.11576173 1.99310613 7.6865383e-2
v 0.11576173 1.99310613 -7.7011458e-2
v -0.11668062 1.99310613 -7.7011458e-2
v -0.11668062 1.99310613 7.6865383e-2
v -9.6923024e-2 1.87209851 7.6865383e-2
v -9.6923024e-2 1.59216971 7.6865383e-2
v -9.6923024e-2 1.87209851 -7.7011458e-2
v -9.6923024e-2 1.59216971 -7.7011458e-2
v 9.6004133e-2 1.87209851 -7.7011458e-2
v 9.6004133e-2 1.59216971 -7.7011458e-2
v 9.6004133e-2 1.87209851 7.6865383e-2
v 9.6004133e-2 1.59216971 7.6865383e-2
v -0.21972537 1.87209851 -7.7011458e-2
v -0.21972537 1.59216971 -7.7011458e-2
v -0.21972537 1.59216971 7.6865383e-2
v -0.21972537 1.87209851 7.6865383e-2
v 0.21880648 1.87209851 7.6865383e-2
v 0.21880648 1.59216971 7.6865383e-2
v 0.21880648 1.59216971 -7.7011458e-2
v 0.21880648 1.87209851 -7.7011458e-2
v 0.42367492 1.28471893 0.17560917
v 0.43391811 1.26318655 0.17985204
v 0.45862029 1.28471893 -7.3037589e-5
v 0.46970743 1.26318655 -7.3037589e-5
v 0.42367492 1.28471893 -0.17575524
v 0.43391811 1.26318655 -0.17999811
v 0.32415895 1.28471893 -0.32469143
v 0.33199874 1.26318655 -0.33253123
v 0.17522276 1.28471893 -0.42420740
v 0.17946563 1.26318655 -0.43445059
v -4.5944512e-4 1.28471893 -0.45915277
v -4.5944512e-4 1.26318655 -0.47023992
v -0.17614165 1.28471893 -0.42420740
v -0.18038452 1.26318655 -0.43445059
v -0.32507784 1.28471893 -0.32469143
v -0.33291763 1.26318655 -0.33253123
v -0.42459381 1.28471893 -0.17575524
v -0.43483700 1.26318655 -0.17999811
v -0.45953918 1.28471893 -7.3037589e-5
v -0.47062632 1.26318655 -7.3037589e-5
v -0.42459381 1.28471893 0.17560917
v -0.43483700 1.26318655 0.17985204
v -0.32507784 1.28471893 0.32454535
v -0.33291763 1.26318655 0.33238515
v -0.17614165 1.28471893 0.42406133
v -0.18038452 1.26318655 0.43430452
v -4.5944512e-4 1.28471893 0.45900669
v -4.5944512e-4 1.26318655 0.47009384
v 0.17522276 1.28471893 0.42406133
v 0.17946563 1.26318655 0.43430452
v 0.32415895 1.28471893 0.32454535
v 0.33199874 1.26318655 0.33238515
v -4.5944512e-4 2.04813043 7.6865383e-2
v -4.5944512e-4 2.04813043 -7.7011458e-2
vn 0.74637740 0.66552281 4.1489788e-4
vn 0.95846720 0.28520181 -7.3751053e-4
vn 0.68871775 0.66602227 0.28649990
vn 0.88579417 0.28612669 0.36537680
vn 0.52649032 0.66625157 0.52812574
vn 0.67850918 0.28623705 0.67653059
vn 0.28422953 0.66648035 0.68921515
vn 0.36795536 0.28631823 0.88466419
vn -1.1578083e-3 0.66672049 0.74530694
vn 1.4003597e-3 0.28640741 0.95810690
vn -0.28621327 0.66693582 0.68795246
vn -0.36534914 0.28649207 0.88568747
vn -0.52765082 0.66708397 0.52591215
vn -0.67649083 0.28654773 0.67841768
vn -0.68966090 0.66701930 0.28187424
vn -0.88544403 0.28678692 0.36570771
vn -0.74457959 0.66751521 -4.9672519e-3
vn -0.95777361 0.28750014 -3.6593015e-3
vn -0.68725502 0.66751927 -0.28652845
vn -0.88380240 0.28724297 -0.36930313
vn -0.52780941 0.66686372 -0.52603232
vn -0.67651478 0.28649313 -0.67841686
vn -0.28632096 0.66663506 -0.68819910
vn -0.36535743 0.28643659 -0.88570200
vn -1.1582508e-3 0.66639476 -0.74559820
vn 1.4002412e-3 0.28634789 -0.95812469
vn 0.28432825 0.66617899 -0.68946574
vn 0.36795991 0.28626291 -0.88468020
vn 0.52662859 0.66602118 -0.52827844
vn 0.67851516 0.28619487 -0.67654244
vn 0.68933750 0.66554683 -0.28611403
vn 0.88575283 0.28525704 -0.36615617
vn 0.99872421 5.0399808e-2 3.1310276e-3
vn 0.92375183 5.0239158e-2 0.37968222
vn 0.71030318 4.9226448e-2 0.70217245
vn 0.38753596 4.8601281e-2 0.92057254
vn 5.7489213e-3 4.7874598e-2 0.99883681
vn -0.37693924 4.7157033e-2 0.92503677
vn -0.70223669 4.6565855e-2 0.71041907
vn -0.92185950 4.5515612e-2 0.38484204
vn -0.99896335 4.5411317e-2 -3.1685642e-3
vn -0.92061153 4.6249966e-2 -0.38773103
vn -0.70226220 4.6672422e-2 -0.71038686
vn -0.37693672 4.7307402e-2 -0.92503012
vn 5.7488079e-3 4.8036656e-2 -0.99882903
vn 0.38753321 4.8750364e-2 -0.92056581
vn 0.71029924 4.9339877e-2 -0.70216848
vn 0.92496665 4.9705672e-2 -0.37678381
vn 0.73704174 0.67584478 1.8200858e-3
vn 0.96023462 0.27916928 3.7409302e-3
vn 0.67827767 0.67705783 0.28553827
vn 0.88387257 0.28017817 0.37452567
vn 0.51737780 0.67702318 0.52341172
vn 0.67330478 0.27997698 0.68430517
vn 0.27770307 0.67697369 0.68160665
vn 0.36018632 0.27986807 0.88990993
vn -4.2781307e-3 0.67690183 0.73606088
vn -7.7867277e-3 0.27973716 0.96004504
vn -0.28565852 0.67681644 0.67846791
vn -0.37460009 0.27960189 0.88402350
vn -0.52368103 0.67671319 0.51751081
vn -0.68450249 0.27942836 0.67333211
vn -0.68149816 0.67776808 0.27602663
vn -0.89019147 0.28027778 0.35917060
vn -0.73527996 0.67774180 -5.4253353e-3
vn -0.95993479 0.28015992 -5.9675202e-3
vn -0.68048575 0.67662462 -0.28127969
vn -0.88823961 0.27928204 -0.36473543
vn -0.52368961 0.67667363 -0.51755385
vn -0.68442724 0.27950228 -0.67337792
vn -0.28571201 0.67668158 -0.67857990
vn -0.37460685 0.27958398 -0.88402630
vn -4.2783544e-3 0.67675565 -0.73619528
vn -7.7866450e-3 0.27971956 -0.96005017
vn 0.27774776 0.67683869 -0.68172250
vn 0.36018768 0.27985213 -0.88991439
vn 0.51744160 0.67691603 -0.52348723
vn 0.67330649 0.27995958 -0.68431061
vn 0.68024683 0.67577778 -0.28388137
vn 0.88574712 0.27900482 -0.37095599
vn 0.40018126 0.90184046 -0.16290716
vn 0.84755767 0.40061980 -0.34806574
vn 0.30807951 0.90203301 -0.30236313
vn 0.65098946 0.40178173 -0.64403739
vn 0.16892708 0.90202412 -0.39726077
vn 0.35501703 0.40151844 -0.84424277
vn 4.0427222e-3 0.90201112 -0.43169386
vn 4.9156281e-3 0.40118431 -0.91598416
vn -0.16148735 0.90199532 -0.40040763
vn -0.34605147 0.40082920 -0.84828317
vn -0.30246670 0.90198028 -0.30813222
vn -0.64444092 0.40051326 -0.65137165
vn -0.39738466 0.90192196 -0.16918099
vn -0.84461131 0.40025633 -0.35556519
vn -0.42940877 0.90310604 -2.7546877e-3
vn -0.91500639 0.40342350 -3.5743913e-3
vn -0.39591314 0.90307594 0.16645308
vn -0.84444489 0.40336282 0.35243618
vn -0.30257293 0.90187563 0.30833420
vn -0.64453675 0.40019384 0.65147315
vn -0.16153002 0.90193227 0.40053243
vn -0.34610045 0.40051093 0.84841350
vn 4.0440369e-3 0.90193878 0.43184497
vn 4.9167941e-3 0.40083155 0.91613858
vn 0.16898369 0.90195393 0.39739604
vn 0.35507327 0.40118557 0.84437735
vn 0.30816332 0.90197569 0.30244872
vn 0.65107049 0.40151943 0.64411906
vn 0.40298220 0.90063683 0.16266114
vn 0.84903885 0.39900929 0.34630133
vn 0.43493710 0.90046073 -4.4281588e-4
vn 0.91744361 0.39786312 -1.4712466e-3
vn 0.63276441 -0.77434366 1.0479719e-3
vn 0.96096256 -0.27665614 3.5123006e-3
vn 0.95056270 0.31052512 -2.1680401e-3
vn 0.61016677 0.79227233 -1.0312220e-3
vn 0.57867105 -0.77837749 0.24345082
vn 0.88396284 -0.28013149 0.37434749
vn 0.87737575 0.31052512 0.36576761
vn 0.56332596 0.79227233 0.23445344
vn 0.44114476 -0.77871000 0.44609645
vn 0.67335302 -0.28045727 0.68406098
vn 0.66950058 0.30784495 0.67601809
vn 0.42728878 0.79429103 0.43188664
vn 0.23684996 -0.77870987 0.58095873
vn 0.36031755 -0.28045692 0.88967139
vn 0.35983575 0.30785335 0.88076361
vn 0.22948503 0.79429560 0.56252211
vn -3.5024520e-3 -0.77870987 0.62737443
vn -7.5724960e-3 -0.28045693 0.95983674
vn -4.6087540e-3 0.30785335 0.95142266
vn -3.2513669e-3 0.79429560 0.60752278
vn -0.24332164 -0.77870987 0.57827806
vn -0.37430969 -0.28045693 0.88387565
vn -0.36835162 0.30785335 0.87723623
vn -0.23549277 0.79429560 0.56003362
vn -0.44623656 -0.77861269 0.44117481
vn -0.68415791 -0.28040304 0.67327712
vn -0.67601629 0.30785335 0.66949853
vn -0.43188254 0.79429560 0.42728441
vn -0.57664231 -0.78260732 0.23454091
vn -0.88900894 -0.28399855 0.35917673
vn -0.87976997 0.31104282 0.35952352
vn -0.55820909 0.79784623 0.22769276
vn -0.62201570 -0.78298670 -5.3192070e-3
vn -0.95869085 -0.28438086 -6.2758087e-3
vn -0.95235599 0.30496725 -3.6108637e-3
vn -0.60533669 0.79595623 -4.6022287e-3
vn -0.57900932 -0.77937992 -0.23940580
vn -0.88770235 -0.28104637 -0.36468817
vn -0.88166474 0.30178036 -0.36276148
vn -0.56406437 0.79231278 -0.23253352
vn -0.44572951 -0.77913381 -0.44076719
vn -0.68401712 -0.28072299 -0.67328685
vn -0.67601475 0.30785956 -0.66949723
vn -0.43195870 0.79420845 -0.42736942
vn -0.24331629 -0.77871579 -0.57827234
vn -0.37431067 -0.28045981 -0.88387432
vn -0.36835162 0.30785335 -0.87723623
vn -0.23549277 0.79429560 -0.56003362
vn -3.5024520e-3 -0.77870987 -0.62737443
vn -7.5724960e-3 -0.28045693 -0.95983674
vn -4.6087540e-3 0.30785335 -0.95142266
vn -3.2513669e-3 0.79429560 -0.60752278
vn 0.23684996 -0.77870987 -0.58095872
vn 0.36031754 -0.28045693 -0.88967139
vn 0.35983575 0.30785335 -0.88076361
vn 0.22948503 0.79429560 -0.56252211
vn 0.44114411 -0.77870987 -0.44609732
vn 0.67335251 -0.28045692 -0.68406163
vn 0.66949853 0.30785335 -0.67601629
vn 0.42728441 0.79429560 -0.43188254
vn 0.58395795 -0.77469652 -0.24256630
vn 0.88647647 -0.27698938 -0.37072408
vn 0.87723881 0.30784495 -0.36835249
vn 0.56003922 0.79429103 -0.23549489
vn 0.85762251 -0.37187226 0.35523887
vn 0.37754105 -0.91269230 0.15638262
vn 0.92828391 -0.37187226 9.0975587e-17
vn 0.40864749 -0.91269230 3.7693976e-17
vn 0.85762251 -0.37187226 -0.35523887
vn 0.37754105 -0.91269230 -0.15638262
vn 0.65639585 -0.37187226 -0.65639585
vn 0.28895741 -0.91269230 -0.28895741
vn 0.35523887 -0.37187226 -0.85762251
vn 0.15638262 -0.91269230 -0.37754105
vn -1.9711377e-16 -0.37187226 -0.92828391
vn 2.2616386e-17 -0.91269230 -0.40864749
vn -0.35523887 -0.37187226 -0.85762251
vn -0.15638262 -0.91269230 -0.37754105
vn -0.65639585 -0.37187226 -0.65639585
vn -0.28895741 -0.91269230 -0.28895741
vn -0.85762251 -0.37187226 -0.35523887
vn -0.37754105 -0.91269230 -0.15638262
vn -0.92828391 -0.37187226 -3.7906495e-17
vn -0.40864749 -0.91269230 -1.5077590e-17
vn -0.85762251 -0.37187226 0.35523887
vn -0.37754105 -0.91269230 0.15638262
vn -0.65639585 -0.37187226 0.65639585
vn -0.28895741 -0.91269230 0.28895741
vn -0.35523887 -0.37187226 0.85762251
vn -0.15638262 -0.91269230 0.37754105
vn 1.0613818e-16 -0.37187226 0.92828391
vn 2.2616386e-17 -0.91269230 0.40864749
vn 0.35523887 -0.37187226 0.85762251
vn 0.15638262 -0.91269230 0.37754105
vn 0.65639585 -0.37187226 0.65639585
vn 0.28895741 -0.91269230 0.28895741
vn 0.85762251 0.37187226 0.35523887
vn 0.38606755 0.90850384 0.15991441
vn 0.92828391 0.37187226 9.0975587e-17
vn 0.41787650 0.90850384 3.7541502e-17
vn 0.85762251 0.37187226 -0.35523887
vn 0.38606755 0.90850384 -0.15991441
vn 0.65639585 0.37187226 -0.65639585
vn 0.29548331 0.90850384 -0.29548331
vn 0.35523887 0.37187226 -0.85762251
vn 0.15991441 0.90850384 -0.38606755
vn -2.0469507e-16 0.37187226 -0.92828391
vn 2.2524901e-17 0.90850384 -0.41787650
vn -0.35523887 0.37187226 -0.85762251
vn -0.15991441 0.90850384 -0.38606755
vn -0.65639585 0.37187226 -0.65639585
vn -0.29548331 0.90850384 -0.29548331
vn -0.85762251 0.37187226 -0.35523887
vn -0.38606755 0.90850384 -0.15991441
vn -0.92828391 0.37187226 -4.5487793e-17
vn -0.41787650 0.90850384 -2.2524901e-17
vn -0.85762251 0.37187226 0.35523887
vn -0.38606755 0.90850384 0.15991441
vn -0.65639585 0.37187226 0.65639585
vn -0.29548331 0.90850384 0.29548331
vn -0.35523887 0.37187226 0.85762251
vn -0.15991441 0.90850384 0.38606755
vn 1.8195117e-16 0.37187226 0.92828391
vn 1.0511621e-16 0.90850384 0.41787650
vn 0.35523887 0.37187226 0.85762251
vn 0.15991441 0.90850384 0.38606755
vn 0.65639585 0.37187226 0.65639585
vn 0.29548331 0.90850384 0.29548331
vn 0.92382424 9.2289858e-3 -0.38270563
vn 0.70701867 9.1987947e-3 -0.70713505
vn 0.38259149 9.1423106e-3 -0.92387238
vn -8.2171553e-5 9.0728727e-3 -0.99995884
vn -0.38274386 9.0010527e-3 -0.92381065
vn -0.70713681 8.9377769e-3 -0.70702026
vn -0.92385632 8.8982481e-3 -0.38263601
vn -0.99996059 8.8774405e-3 -5.5108242e-5
vn -0.92387784 8.8798431e-3 0.38258447
vn -0.70713745 8.9155373e-3 0.70701990
vn -0.38274398 8.9721069e-3 0.92381088
vn -8.2171473e-5 9.0415413e-3 0.99995912
vn 0.38259161 9.1133630e-3 0.92387261
vn 0.70701887 9.1766338e-3 0.70713514
vn 0.92380901 9.2213630e-3 0.38274257
vn 0.99995734 9.2366749e-3 3.9985624e-5
vn 0.16957972 0.98300972 -7.0246793e-2
vn 0.12979127 0.98300808 -0.12980500
vn 7.0239179e-2 0.98300519 -0.16960912
vn -1.5701783e-5 0.98300157 -0.18359716
vn -7.0281135e-2 0.98299783 -0.16963442
vn -0.12985721 0.98299460 -0.12984113
vn -0.16966915 0.98299247 -7.0272189e-2
vn -0.18365157 0.98299140 1.8262520e-6
vn -0.16967263 0.98299161 7.0275822e-2
vn -0.12986111 0.98299340 0.12984629
vn -7.0283246e-2 0.98299637 0.16964199
vn -1.5701331e-5 0.98299999 0.18360560
vn 7.0241279e-2 0.98300373 0.16961669
vn 0.12979361 0.98300702 0.12981068
vn 0.16958087 0.98300929 7.0250001e-2
vn 0.18355128 0.98301014 8.6680982e-7
vn 4.6365771e-2 -0.99892453 -6.7167761e-7
vn 4.2834819e-2 -0.99892477 1.7733603e-2
vn 3.2783030e-2 -0.99892544 3.2760321e-2
vn 1.7746698e-2 -0.99892641 4.2791130e-2
vn 2.1351457e-5 -0.99892751 4.6301402e-2
vn -1.7692426e-2 -0.99892858 4.2762876e-2
vn -3.2700717e-2 -0.99892946 3.2720058e-2
vn -4.2725715e-2 -0.99892999 1.7703016e-2
vn -4.6246983e-2 -0.99893004 -3.4851089e-6
vn -4.2729478e-2 -0.99892972 -1.7708922e-2
vn -3.2705057e-2 -0.99892910 -3.2726574e-2
vn -1.7694709e-2 -0.99892815 -4.2772003e-2
vn 2.1352341e-5 -0.99892705 -4.6311468e-2
vn 1.7748967e-2 -0.99892598 -4.2800257e-2
vn 3.2785474e-2 -0.99892513 -3.2767421e-2
vn 4.2836065e-2 -0.99892465 -1.7737281e-2
vn 0.31051575 0.95056473 2.5825903e-3
vn 0.28455899 0.95061832 0.12389911
vn 0.21548452 0.95061472 0.22337877
vn 0.11360069 0.95060564 0.28886640
vn -5.5978603e-3 0.95059072 0.31039644
vn -0.12397964 0.95057238 0.28467737
vn -0.22351890 0.95055551 0.21560036
vn -0.28898796 0.95020459 0.11660698
vn -0.31161547 0.95020402 2.8511534e-3
vn -0.28901500 0.95055315 -0.11366197
vn -0.22349003 0.95056789 -0.21557572
vn -0.12396086 0.95058508 -0.28464313
vn -5.5923716e-3 0.95059991 -0.31036839
vn 0.11360081 0.95060980 -0.28885266
vn 0.21548751 0.95061499 -0.22337474
vn 0.28589181 0.95056354 -0.12122227
vn 7.3344070e-2 -0.99730670 -7.9583155e-7
vn 6.7759739e-2 -0.99730715 2.8054581e-2
vn 5.1860750e-2 -0.99730845 5.1829659e-2
vn 2.8074393e-2 -0.99731033 6.7704741e-2
vn 2.9240700e-5 -0.99731247 7.3265546e-2
vn -2.8002725e-2 -0.99731454 6.7672466e-2
vn -5.1757104e-2 -0.99731623 5.1783612e-2
vn -6.7625662e-2 -0.99731726 2.8018801e-2
vn -7.3199129e-2 -0.99731735 -4.9425541e-6
vn -6.7630188e-2 -0.99731673 -2.8026614e-2
vn -5.1762253e-2 -0.99731555 -5.1791546e-2
vn -2.8005310e-2 -0.99731370 -6.7683653e-2
vn 2.9241773e-5 -0.99731157 -7.3277797e-2
vn 2.8076958e-2 -0.99730950 -6.7715931e-2
vn 5.1863346e-2 -0.99730784 -5.1838773e-2
vn 6.7760959e-2 -0.99730693 -2.8059429e-2
vn 0.98451217 0.17531183 1.2432230e-3
vn 0.67376364 0.73893566 4.0791981e-3
vn 0.90993143 0.16967868 0.37846259
vn 0.62757265 0.73173896 0.26591478
vn 0.69587049 0.16925016 0.69793886
vn 0.47851560 0.73105328 0.48639894
vn 0.37582799 0.16875639 0.91119405
vn 0.25625881 0.73020383 0.63335124
vn -1.4857055e-3 0.16827317 0.98573928
vn -5.6445793e-3 0.72931871 0.68415083
vn -0.37862073 0.16787467 0.91020022
vn -0.26734582 0.72853329 0.63068650
vn -0.69813866 0.16762214 0.69606410
vn -0.48875218 0.72796955 0.48081352
vn -0.91213904 0.16207482 0.37647594
vn -0.64175131 0.72097666 0.26143434
vn -0.98677795 0.16207343 1.2186012e-3
vn -0.69294933 0.72097498 4.0365971e-3
vn -0.91136605 0.16761180 -0.37592314
vn -0.63555093 0.72796183 -0.25718979
vn -0.69811970 0.16785373 -0.69602730
vn -0.48835621 0.72851877 -0.48038382
vn -0.37859991 0.16824825 -0.91013990
vn -0.26703420 0.72930129 -0.62993045
vn -1.4795611e-3 0.16873151 -0.98566094
vn -5.6221338e-3 0.73018659 -0.68322466
vn 0.37581097 0.16922906 -0.91111341
vn 0.25595649 0.73103875 -0.63250978
vn 0.69583583 0.16966478 -0.69787274
vn 0.47804369 0.73172943 -0.48584593
vn 0.90909465 0.17530707 -0.37790785
vn 0.62091624 0.73893243 -0.26161401
vn 0.89127108 -0.45347091 5.7755806e-6
vn 0.44752290 -0.89427247 2.1625951e-6
vn 0.82342102 -0.45347813 0.34107977
vn 0.41345313 -0.89427591 0.17125157
vn 0.63021125 -0.45350121 0.63021460
vn 0.31643834 -0.89428649 0.31641499
vn 0.34106267 -0.45353406 0.82339730
vn 0.17125807 -0.89430166 0.41339474
vn 9.4325598e-7 -0.45357139 0.89121995
vn 2.3900477e-5 -0.89431891 0.44743008
vn -0.34104857 -0.45360753 0.82336266
vn -0.17119229 -0.89433562 0.41334853
vn -0.63016687 -0.45363706 0.63016120
vn -0.31632865 -0.89434927 0.31634722
vn -0.82334423 -0.45365574 0.34102895
vn -0.41329958 -0.89435777 0.17119475
vn -0.89117671 -0.45365634 -1.0717639e-5
vn -0.44735162 -0.89435817 -9.1381905e-6
vn -0.82334495 -0.45364552 -0.34104082
vn -0.41330443 -0.89435319 -0.17120696
vn -0.63017016 -0.45362578 -0.63016603
vn -0.31633473 -0.89434393 -0.31635625
vn -0.34105061 -0.45359300 -0.82336983
vn -0.17119564 -0.89432890 -0.41336167
vn 9.4370048e-7 -0.45355566 -0.89122795
vn 2.3901487e-5 -0.89431165 -0.44744461
vn 0.34106469 -0.45351952 -0.82340447
vn 0.17126140 -0.89429495 -0.41340788
vn 0.63021377 -0.45349016 -0.63022003
vn 0.31644211 -0.89428148 -0.31642539
vn 0.82342403 -0.45347500 -0.34107666
vn 0.41345545 -0.89427438 -0.17125399
vn 0.91378387 0.14741949 -0.37850567
vn 0.66338814 0.69599351 -0.27478937
vn 0.69937704 0.14740442 -0.69938808
vn 0.50773266 0.69598844 -0.50774761
vn 0.37849619 0.14737567 -0.91379486
vn 0.27477700 0.69597883 -0.66340867
vn -9.8217415e-6 0.14734031 -0.98908586
vn -1.6206754e-5 0.69596699 -0.71807377
vn -0.37851772 0.14730377 -0.91379754
vn -0.27481385 0.69595476 -0.66341866
vn -0.69940247 0.14727168 -0.69939062
vn -0.50777916 0.69594404 -0.50776198
vn -0.91380988 0.14725208 -0.37850802
vn -0.66344268 0.69593744 -0.27479973
vn -0.98910057 0.14724153 -2.3775240e-6
vn -0.71810584 0.69593391 8.8443711e-7
vn -0.91381215 0.14724240 0.37850631
vn -0.66344522 0.69593424 0.27480170
vn -0.69940344 0.14726069 0.69939196
vn -0.50778108 0.69594034 0.50776512
vn -0.37851823 0.14728956 0.91379961
vn -0.27481479 0.69595000 0.66342326
vn -9.8216336e-6 0.14732492 0.98908815
vn -1.6206452e-5 0.69596184 0.71807877
vn 0.37849670 0.14736145 0.91379694
vn 0.27477794 0.69597407 0.66341328
vn 0.69937762 0.14739359 0.69938979
vn 0.50773358 0.69598483 0.50775165
vn 0.91378314 0.14741619 0.37850870
vn 0.66338796 0.69599238 0.27479269
vn 0.98907346 0.14742349 2.4649898e-6
vn 0.71804677 0.69599485 1.4296720e-6
vn 0.24804838 0.96328369 0.10274501
vn 0.26848564 0.96328369 1.9774873e-16
vn 0.24804838 0.96328369 -0.10274501
vn 0.10274501 0.96328369 -0.24804838
vn -6.6108182e-17 0.96328369 -0.26848564
vn -0.10274501 0.96328369 -0.24804838
vn -0.24804838 0.96328369 -0.10274501
vn -0.26848564 0.96328369 -2.3610065e-17
vn -0.24804838 0.96328369 0.10274501
vn -0.10274501 0.96328369 0.24804838
vn 5.1942143e-17 0.96328369 0.26848564
vn 0.10274501 0.96328369 0.24804838
vn 0.57445834 0.58309111 0.57445834
vn 0.57445834 0.58309111 -0.57445834
vn -0.57445834 0.58309111 -0.57445834
vn -0.57445834 0.58309111 0.57445834
vn 0.12467075 0.98433450 0.12467075
vn 0.12467075 0.98433450 -0.12467075
vn -0.12467075 0.98433450 -0.12467075
vn -0.12467075 0.98433450 0.12467075
vn 0.62899867 0.73244774 0.26053978
vn 0.68082325 0.73244774 6.6955941e-17
vn 0.62899867 0.73244774 -0.26053978
vn 0.48141474 0.73244774 -0.48141474
vn 0.26053978 0.73244774 -0.62899867
vn -2.0086782e-16 0.73244774 -0.68082325
vn -0.26053978 0.73244774 -0.62899867
vn -0.48141474 0.73244774 -0.48141474
vn -0.62899867 0.73244774 -0.26053978
vn -0.68082325 0.73244774 -3.7197745e-17
vn -0.62899867 0.73244774 0.26053978
vn -0.48141474 0.73244774 0.48141474
vn -0.26053978 0.73244774 0.62899867
vn 1.2647233e-16 0.73244774 0.68082325
vn 0.26053978 0.73244774 0.62899867
vn 0.48141474 0.73244774 0.48141474
vn 0.0000000e+0 -1.00000000 3.3531259e-17
vn 0.99982328 1.8714710e-2 -1.7793076e-3
vn 0.99982328 1.8714710e-2 -1.7793076e-3
vn 0.0000000e+0 -1.00000000 3.3531259e-17
vn 0.92303535 1.8714710e-2 0.38425967
vn 0.92303535 1.8714710e-2 0.38425967
vn 0.0000000e+0 -1.00000000 3.3531259e-17
vn 0.70458558 1.0755077e-2 0.70953752
vn 0.70458558 1.0755077e-2 0.70953752
vn 0.0000000e+0 -1.00000000 3.3531259e-17
vn 0.37942394 1.0755077e-2 0.92516042
vn 0.37942394 1.0755077e-2 0.92516042
vn 0.0000000e+0 -1.00000000 3.3531259e-17
vn -3.5015529e-3 1.0755077e-2 0.99993603
vn -3.5015529e-3 1.0755077e-2 0.99993603
vn 0.0000000e+0 -1.00000000 3.3531259e-17
vn -0.38589397 1.0755077e-2 0.92248045
vn -0.38589397 1.0755077e-2 0.92248045
vn 0.0000000e+0 -1.00000000 3.3531259e-17
vn -0.70953752 1.0755077e-2 0.70458558
vn -0.70953752 1.0755077e-2 0.70458558
vn 0.0000000e+0 -1.00000000 3.3531259e-17
vn -0.92516042 1.0755077e-2 0.37942394
vn -0.92516042 1.0755077e-2 0.37942394
vn 0.0000000e+0 -1.00000000 3.3531259e-17
vn -0.99999374 3.0729382e-3 -1.7553489e-3
vn -0.99999374 3.0729382e-3 -1.7553489e-3
vn 0.0000000e+0 -1.00000000 3.3531259e-17
vn -0.92454549 3.0729382e-3 -0.38105931
vn -0.92454549 3.0729382e-3 -0.38105931
vn 0.0000000e+0 -1.00000000 3.3531259e-17
vn -0.70953752 1.0755077e-2 -0.70458558
vn -0.70953752 1.0755077e-2 -0.70458558
vn 0.0000000e+0 -1.00000000 3.3531259e-17
vn -0.38589397 1.0755077e-2 -0.92248045
vn -0.38589397 1.0755077e-2 -0.92248045
vn 0.0000000e+0 -1.00000000 3.3531259e-17
vn -3.5015529e-3 1.0755077e-2 -0.99993603
vn -3.5015529e-3 1.0755077e-2 -0.99993603
vn 0.0000000e+0 -1.00000000 3.3531259e-17
vn 0.37942394 1.0755077e-2 -0.92516042
vn 0.37942394 1.0755077e-2 -0.92516042
vn 0.0000000e+0 -1.00000000 3.3531259e-17
vn 0.70458558 1.0755077e-2 -0.70953752
vn 0.70458558 1.0755077e-2 -0.70953752
vn 0.0000000e+0 -1.00000000 3.3531259e-17
vn 0.92248045 1.0755077e-2 -0.38589397
vn 0.92248045 1.0755077e-2 -0.38589397
vn 0.37153483 -0.92841896 -3.3209914e-4
vn 0.37153483 -0.92841896 -3.3209914e-4
vn 0.34860483 0.93726972 3.8186043e-4
vn 0.34860483 0.93726972 3.8186043e-4
vn 0.33803348 -0.93052309 0.14092603
vn 0.33803348 -0.93052309 0.14092603
vn 0.32221499 0.93726972 0.13305250
vn 0.32221499 0.93726972 0.13305250
vn 0.25795453 -0.93073898 0.25919957
vn 0.25795453 -0.93073898 0.25919957
vn 0.24286545 0.93882325 0.24418698
vn 0.24286545 0.93882325 0.24418698
vn 0.13912633 -0.93073918 0.33818402
vn 0.13912633 -0.93073918 0.33818402
vn 0.13093291 0.93882242 0.31854203
vn 0.13093291 0.93882242 0.31854203
vn -8.8145080e-4 -0.93073918 0.36568264
vn -8.8145080e-4 -0.93073918 0.36568264
vn -9.3452073e-4 0.93882242 0.34440032
vn -9.3452073e-4 0.93882242 0.34440032
vn -0.14075504 -0.93073918 0.33750939
vn -0.14075504 -0.93073918 0.33750939
vn -0.13265968 0.93882242 0.31782678
vn -0.13265968 0.93882242 0.31782678
vn -0.25931245 -0.93069164 0.25801188
vn -0.25931245 -0.93069164 0.25801188
vn -0.24418861 0.93882242 0.24286700
vn -0.24418861 0.93882242 0.24286700
vn -0.33377048 -0.93265765 0.13691961
vn -0.33377048 -0.93265765 0.13691961
vn -0.31421440 0.94055627 0.12893103
vn -0.31421440 0.94055627 0.12893103
vn -0.36010333 -0.93290370 -4.0348296e-3
vn -0.36010333 -0.93290370 -4.0348296e-3
vn -0.34062491 0.94019211 -3.6687956e-3
vn -0.34062491 0.94019211 -3.6687956e-3
vn -0.33643015 -0.93119250 -0.14033985
vn -0.33643015 -0.93119250 -0.14033985
vn -0.31910476 0.93837018 -0.13279139
vn -0.31910476 0.93837018 -0.13279139
vn -0.25867521 -0.93103422 -0.25741486
vn -0.25867521 -0.93103422 -0.25741486
vn -0.24437869 0.93871965 -0.24307298
vn -0.24437869 0.93871965 -0.24307298
vn -0.14074542 -0.93074480 -0.33749793
vn -0.14074542 -0.93074480 -0.33749793
vn -0.13265968 0.93882242 -0.31782678
vn -0.13265968 0.93882242 -0.31782678
vn -8.8145080e-4 -0.93073918 -0.36568264
vn -8.8145080e-4 -0.93073918 -0.36568264
vn -9.3452073e-4 0.93882242 -0.34440032
vn -9.3452073e-4 0.93882242 -0.34440032
vn 0.13912633 -0.93073918 -0.33818402
vn 0.13912633 -0.93073918 -0.33818402
vn 0.13093291 0.93882242 -0.31854203
vn 0.13093291 0.93882242 -0.31854203
vn 0.25795340 -0.93073918 -0.25919995
vn 0.25795340 -0.93073918 -0.25919995
vn 0.24286700 0.93882242 -0.24418861
vn 0.24286700 0.93882242 -0.24418861
vn 0.34301411 -0.92864527 -0.14127733
vn 0.34301411 -0.92864527 -0.14127733
vn 0.31782473 0.93882325 -0.13265877
vn 0.31782473 0.93882325 -0.13265877
vn 8.8032520e-2 0.99611752 4.0844081e-4
vn 8.8032520e-2 0.99611752 4.0844081e-4
vn 0.99794575 6.3764440e-2 6.1943034e-3
vn 0.99794575 6.3764440e-2 6.1943034e-3
vn 8.1777358e-2 0.99611233 3.2752051e-2
vn 8.1777358e-2 0.99611233 3.2752051e-2
vn 0.92413551 6.3466745e-2 0.37675661
vn 0.92413551 6.3466745e-2 0.37675661
vn 6.2880873e-2 0.99615674 6.0973309e-2
vn 6.2880873e-2 0.99615674 6.0973309e-2
vn 0.71394180 6.1523559e-2 0.69749692
vn 0.71394180 6.1523559e-2 0.69749692
vn 3.4666281e-2 0.99617910 8.0158871e-2
vn 3.4666281e-2 0.99617910 8.0158871e-2
vn 0.39270176 6.0367841e-2 0.91768244
vn 0.39270176 6.0367841e-2 0.91768244
vn 1.3496187e-3 0.99620523 8.7024845e-2
vn 1.3496187e-3 0.99620523 8.7024845e-2
vn 1.1627837e-2 5.9021768e-2 0.99818897
vn 1.1627837e-2 5.9021768e-2 0.99818897
vn -3.1948514e-2 0.99623107 8.0640838e-2
vn -3.1948514e-2 0.99623107 8.0640838e-2
vn -0.37127576 5.7690253e-2 0.92672873
vn -0.37127576 5.7690253e-2 0.92672873
vn -6.0223894e-2 0.99624315 6.2230734e-2
vn -6.0223894e-2 0.99624315 6.2230734e-2
vn -0.69764984 5.6592021e-2 0.71420028
vn -0.69764984 5.6592021e-2 0.71420028
vn -7.9439122e-2 0.99626946 3.3713329e-2
vn -7.9439122e-2 0.99626946 3.3713329e-2
vn -0.92031412 5.4557619e-2 0.38735692
vn -0.92031412 5.4557619e-2 0.38735692
vn -8.6239314e-2 0.99627409 -8.4966716e-4
vn -8.6239314e-2 0.99627409 -8.4966716e-4
vn -0.99850220 5.4353144e-2 -6.2530540e-3
vn -0.99850220 5.4353144e-2 -6.2530540e-3
vn -7.9325263e-2 0.99625461 -3.4413088e-2
vn -7.9325263e-2 0.99625461 -3.4413088e-2
vn -0.91781791 5.5986430e-2 -0.39303411
vn -0.91781791 5.5986430e-2 -0.39303411
vn -6.0250099e-2 0.99625030 -6.2090849e-2
vn -6.0250099e-2 0.99625030 -6.2090849e-2
vn -0.69770169 5.6771681e-2 -0.71413537
vn -0.69770169 5.6771681e-2 -0.71413537
vn -3.1966253e-2 0.99622850 -8.0665607e-2
vn -3.1966253e-2 0.99622850 -8.0665607e-2
vn -0.37127047 5.7947135e-2 -0.92671483
vn -0.37127047 5.7947135e-2 -0.92671483
vn 1.3499399e-3 0.99620255 -8.7055504e-2
vn 1.3499399e-3 0.99620255 -8.7055504e-2
vn 1.1627593e-2 5.9298404e-2 -0.99817258
vn 1.1627593e-2 5.9298404e-2 -0.99817258
vn 3.4677710e-2 0.99617664 -8.0184482e-2
vn 3.4677710e-2 0.99617664 -8.0184482e-2
vn 0.39269589 6.0622131e-2 -0.91766818
vn 0.39269589 6.0622131e-2 -0.91766818
vn 6.2897420e-2 0.99615487 -6.0986741e-2
vn 6.2897420e-2 0.99615487 -6.0986741e-2
vn 0.71393342 6.1716819e-2 -0.69748843
vn 0.71393342 6.1716819e-2 -0.69748843
vn 8.1355899e-2 0.99616008 -3.2346769e-2
vn 8.1355899e-2 0.99616008 -3.2346769e-2
vn 0.92652945 6.2402704e-2 -0.37101088
vn 0.92652945 6.2402704e-2 -0.37101088
vn 0.92285193 -4.7151881e-2 0.38225779
vn 0.92285193 -4.7151881e-2 0.38225779
vn 3.1221523e-2 -0.99942882 1.2932378e-2
vn 3.1221523e-2 -0.99942882 1.2932378e-2
vn 0.99888773 -4.7151881e-2 7.0745355e-17
vn 0.99888773 -4.7151881e-2 7.0745355e-17
vn 3.3793933e-2 -0.99942882 3.0358347e-18
vn 3.3793933e-2 -0.99942882 3.0358347e-18
vn 0.92285193 -4.7151881e-2 -0.38225779
vn 0.92285193 -4.7151881e-2 -0.38225779
vn 3.1221523e-2 -0.99942882 -1.2932378e-2
vn 3.1221523e-2 -0.99942882 -1.2932378e-2
vn 0.70632029 -4.7151881e-2 -0.70632029
vn 0.70632029 -4.7151881e-2 -0.70632029
vn 2.3895919e-2 -0.99942882 -2.3895919e-2
vn 2.3895919e-2 -0.99942882 -2.3895919e-2
vn 0.38225779 -4.7151881e-2 -0.92285193
vn 0.38225779 -4.7151881e-2 -0.92285193
vn 1.2932378e-2 -0.99942882 -3.1221523e-2
vn 1.2932378e-2 -0.99942882 -3.1221523e-2
vn 3.3957771e-16 -4.7151881e-2 -0.99888773
vn 3.3957771e-16 -4.7151881e-2 -0.99888773
vn 5.6379787e-18 -0.99942882 -3.3793933e-2
vn 5.6379787e-18 -0.99942882 -3.3793933e-2
vn -0.38225779 -4.7151881e-2 -0.92285193
vn -0.38225779 -4.7151881e-2 -0.92285193
vn -1.2932378e-2 -0.99942882 -3.1221523e-2
vn -1.2932378e-2 -0.99942882 -3.1221523e-2
vn -0.70632029 -4.7151881e-2 -0.70632029
vn -0.70632029 -4.7151881e-2 -0.70632029
vn -2.3895919e-2 -0.99942882 -2.3895919e-2
vn -2.3895919e-2 -0.99942882 -2.3895919e-2
vn -0.92285193 -4.7151881e-2 -0.38225779
vn -0.92285193 -4.7151881e-2 -0.38225779
vn -3.1221523e-2 -0.99942882 -1.2932378e-2
vn -3.1221523e-2 -0.99942882 -1.2932378e-2
vn -0.99888773 -4.7151881e-2 -7.0745355e-17
vn -0.99888773 -4.7151881e-2 -7.0745355e-17
vn -3.3793933e-2 -0.99942882 -1.7347627e-18
vn -3.3793933e-2 -0.99942882 -1.7347627e-18
vn -0.92285193 -4.7151881e-2 0.38225779
vn -0.92285193 -4.7151881e-2 0.38225779
vn -3.1221523e-2 -0.99942882 1.2932378e-2
vn -3.1221523e-2 -0.99942882 1.2932378e-2
vn -0.70632029 -4.7151881e-2 0.70632029
vn -0.70632029 -4.7151881e-2 0.70632029
vn -2.3895919e-2 -0.99942882 2.3895919e-2
vn -2.3895919e-2 -0.99942882 2.3895919e-2
vn -0.38225779 -4.7151881e-2 0.92285193
vn -0.38225779 -4.7151881e-2 0.92285193
vn -1.2932378e-2 -0.99942882 3.1221523e-2
vn -1.2932378e-2 -0.99942882 3.1221523e-2
vn 1.8393792e-16 -4.7151881e-2 0.99888773
vn 1.8393792e-16 -4.7151881e-2 0.99888773
vn 5.6379787e-18 -0.99942882 3.3793933e-2
vn 5.6379787e-18 -0.99942882 3.3793933e-2
vn 0.38225779 -4.7151881e-2 0.92285193
vn 0.38225779 -4.7151881e-2 0.92285193
vn 1.2932378e-2 -0.99942882 3.1221523e-2
vn 1.2932378e-2 -0.99942882 3.1221523e-2
vn 0.70632029 -4.7151881e-2 0.70632029
vn 0.70632029 -4.7151881e-2 0.70632029
vn 2.3895919e-2 -0.99942882 2.3895919e-2
vn 2.3895919e-2 -0.99942882 2.3895919e-2
vn 0.90301940 -0.21130046 0.37404288
vn 0.90301940 -0.21130046 0.37404288
vn 4.9806140e-2 0.99854581 2.0630379e-2
vn 4.9806140e-2 0.99854581 2.0630379e-2
vn 0.97742116 -0.21130046 1.2723878e-16
vn 0.97742116 -0.21130046 1.2723878e-16
vn 5.3909777e-2 0.99854581 6.0718812e-18
vn 5.3909777e-2 0.99854581 6.0718812e-18
vn 0.90301940 -0.21130046 -0.37404288
vn 0.90301940 -0.21130046 -0.37404288
vn 4.9806140e-2 0.99854581 -2.0630379e-2
vn 4.9806140e-2 0.99854581 -2.0630379e-2
vn 0.69114113 -0.21130046 -0.69114113
vn 0.69114113 -0.21130046 -0.69114113
vn 3.8119969e-2 0.99854581 -3.8119969e-2
vn 3.8119969e-2 0.99854581 -3.8119969e-2
vn 0.37404288 -0.21130046 -0.90301940
vn 0.37404288 -0.21130046 -0.90301940
vn 2.0630379e-2 0.99854581 -4.9806140e-2
vn 2.0630379e-2 0.99854581 -4.9806140e-2
vn -2.8275285e-17 -0.21130046 -0.97742116
vn -2.8275285e-17 -0.21130046 -0.97742116
vn 7.8067044e-18 0.99854581 -5.3909777e-2
vn 7.8067044e-18 0.99854581 -5.3909777e-2
vn -0.37404288 -0.21130046 -0.90301940
vn -0.37404288 -0.21130046 -0.90301940
vn -2.0630379e-2 0.99854581 -4.9806140e-2
vn -2.0630379e-2 0.99854581 -4.9806140e-2
vn -0.69114113 -0.21130046 -0.69114113
vn -0.69114113 -0.21130046 -0.69114113
vn -3.8119969e-2 0.99854581 -3.8119969e-2
vn -3.8119969e-2 0.99854581 -3.8119969e-2
vn -0.90301940 -0.21130046 -0.37404288
vn -0.90301940 -0.21130046 -0.37404288
vn -4.9806140e-2 0.99854581 -2.0630379e-2
vn -4.9806140e-2 0.99854581 -2.0630379e-2
vn -0.97742116 -0.21130046 -4.2412927e-17
vn -0.97742116 -0.21130046 -4.2412927e-17
vn -5.3909777e-2 0.99854581 -2.6022348e-18
vn -5.3909777e-2 0.99854581 -2.6022348e-18
vn -0.90301940 -0.21130046 0.37404288
vn -0.90301940 -0.21130046 0.37404288
vn -4.9806140e-2 0.99854581 2.0630379e-2
vn -4.9806140e-2 0.99854581 2.0630379e-2
vn -0.69114113 -0.21130046 0.69114113
vn -0.69114113 -0.21130046 0.69114113
vn -3.8119969e-2 0.99854581 3.8119969e-2
vn -3.8119969e-2 0.99854581 3.8119969e-2
vn -0.37404288 -0.21130046 0.90301940
vn -0.37404288 -0.21130046 0.90301940
vn -2.0630379e-2 0.99854581 4.9806140e-2
vn -2.0630379e-2 0.99854581 4.9806140e-2
vn 2.2620228e-16 -0.21130046 0.97742116
vn 2.2620228e-16 -0.21130046 0.97742116
vn 1.4745997e-17 0.99854581 5.3909777e-2
vn 1.4745997e-17 0.99854581 5.3909777e-2
vn 0.37404288 -0.21130046 0.90301940
vn 0.37404288 -0.21130046 0.90301940
vn 2.0630379e-2 0.99854581 4.9806140e-2
vn 2.0630379e-2 0.99854581 4.9806140e-2
vn 0.69114113 -0.21130046 0.69114113
vn 0.69114113 -0.21130046 0.69114113
vn 3.8119969e-2 0.99854581 3.8119969e-2
vn 3.8119969e-2 0.99854581 3.8119969e-2
vn 0.92285193 -4.7151881e-2 -0.38225779
vn 0.92285193 -4.7151881e-2 -0.38225779
vn -0.11245133 0.99256508 4.6575388e-2
vn -0.11245133 0.99256508 4.6575388e-2
vn 0.70632029 -4.7151881e-2 -0.70632029
vn 0.70632029 -4.7151881e-2 -0.70632029
vn -8.6060516e-2 0.99256687 8.6049955e-2
vn -8.6060516e-2 0.99256687 8.6049955e-2
vn 0.38225779 -4.7151881e-2 -0.92285193
vn 0.38225779 -4.7151881e-2 -0.92285193
vn -4.6573166e-2 0.99257001 0.11240872
vn -4.6573166e-2 0.99257001 0.11240872
vn 3.3957771e-16 -4.7151881e-2 -0.99888773
vn 3.3957771e-16 -4.7151881e-2 -0.99888773
vn -1.2384506e-5 0.99257395 0.12164271
vn -1.2384506e-5 0.99257395 0.12164271
vn -0.38225779 -4.7151881e-2 -0.92285193
vn -0.38225779 -4.7151881e-2 -0.92285193
vn 4.6526995e-2 0.99257803 0.11235701
vn 4.6526995e-2 0.99257803 0.11235701
vn -0.70632029 -4.7151881e-2 -0.70632029
vn -0.70632029 -4.7151881e-2 -0.70632029
vn 8.5964455e-2 0.99258152 8.5976942e-2
vn 8.5964455e-2 0.99258152 8.5976942e-2
vn -0.92285193 -4.7151881e-2 -0.38225779
vn -0.92285193 -4.7151881e-2 -0.38225779
vn 0.11230655 0.99258386 4.6524473e-2
vn 0.11230655 0.99258386 4.6524473e-2
vn -0.99888773 -4.7151881e-2 -7.0745355e-17
vn -0.99888773 -4.7151881e-2 -7.0745355e-17
vn 0.12155241 0.99258501 1.8248968e-6
vn 0.12155241 0.99258501 1.8248968e-6
vn -0.92285193 -4.7151881e-2 0.38225779
vn -0.92285193 -4.7151881e-2 0.38225779
vn 0.11230037 0.99258478 -4.6519753e-2
vn 0.11230037 0.99258478 -4.6519753e-2
vn -0.70632029 -4.7151881e-2 0.70632029
vn -0.70632029 -4.7151881e-2 0.70632029
vn 8.5957341e-2 0.99258284 -8.5968786e-2
vn 8.5957341e-2 0.99258284 -8.5968786e-2
vn -0.38225779 -4.7151881e-2 0.92285193
vn -0.38225779 -4.7151881e-2 0.92285193
vn 4.6522754e-2 0.99257962 -0.11234474
vn 4.6522754e-2 0.99257962 -0.11234474
vn 1.8393792e-16 -4.7151881e-2 0.99888773
vn 1.8393792e-16 -4.7151881e-2 0.99888773
vn -1.2384121e-5 0.99257567 -0.12162870
vn -1.2384121e-5 0.99257567 -0.12162870
vn 0.38225779 -4.7151881e-2 0.92285193
vn 0.38225779 -4.7151881e-2 0.92285193
vn -4.6568938e-2 0.99257159 -0.11239646
vn -4.6568938e-2 0.99257159 -0.11239646
vn 0.70632029 -4.7151881e-2 0.70632029
vn 0.70632029 -4.7151881e-2 0.70632029
vn -8.6055302e-2 0.99256801 -8.6041998e-2
vn -8.6055302e-2 0.99256801 -8.6041998e-2
vn 0.92285193 -4.7151881e-2 0.38225779
vn 0.92285193 -4.7151881e-2 0.38225779
vn -0.11244844 0.99256555 -4.6572210e-2
vn -0.11244844 0.99256555 -4.6572210e-2
vn 0.99888773 -4.7151881e-2 7.0745355e-17
vn 0.99888773 -4.7151881e-2 7.0745355e-17
vn -0.12171883 0.99256462 4.7254067e-7
vn -0.12171883 0.99256462 4.7254067e-7
vn 0.99982805 -1.8543801e-2 1.6426063e-5
vn 0.99982805 -1.8543801e-2 1.6426063e-5
vn 9.3252078e-2 -0.99564253 -5.4863302e-8
vn 9.3252078e-2 -0.99564253 -5.4863302e-8
vn 0.92370779 -1.8550964e-2 0.38264837
vn 0.92370779 -1.8550964e-2 0.38264837
vn 8.6150438e-2 -0.99564308 3.5678578e-2
vn 8.6150438e-2 -0.99564308 3.5678578e-2
vn 0.70696124 -1.8573937e-2 0.70700836
vn 0.70696124 -1.8573937e-2 0.70700836
vn 6.5932003e-2 -0.99564456 6.5915650e-2
vn 6.5932003e-2 -0.99564456 6.5915650e-2
vn 0.38258654 -1.8606587e-2 0.92373229
vn 0.38258654 -1.8606587e-2 0.92373229
vn 3.5682719e-2 -0.99564672 8.6106619e-2
vn 3.5682719e-2 -0.99564672 8.6106619e-2
vn -3.3131575e-5 -1.8643729e-2 0.99982619
vn -3.3131575e-5 -1.8643729e-2 0.99982619
vn 1.5744463e-5 -0.99564918 9.3181110e-2
vn 1.5744463e-5 -0.99564918 9.3181110e-2
vn -0.38264736 -1.8679705e-2 0.92370562
vn -0.38264736 -1.8679705e-2 0.92370562
vn -3.5636345e-2 -0.99565155 8.6069975e-2
vn -3.5636345e-2 -0.99565155 8.6069975e-2
vn -0.70700692 -1.8709107e-2 0.70695911
vn -0.70700692 -1.8709107e-2 0.70695911
vn -6.5849531e-2 -0.99565349 6.5863184e-2
vn -6.5849531e-2 -0.99565349 6.5863184e-2
vn -0.92373174 -1.8727847e-2 0.38258193
vn -0.92373174 -1.8727847e-2 0.38258193
vn -8.6032861e-2 -0.99565466 3.5639008e-2
vn -8.6032861e-2 -0.99565466 3.5639008e-2
vn -0.99982460 -1.8728564e-2 -2.2772525e-5
vn -0.99982460 -1.8728564e-2 -2.2772525e-5
vn -9.3121133e-2 -0.99565479 -3.4113640e-6
vn -9.3121133e-2 -0.99565479 -3.4113640e-6
vn -0.92372308 -1.8717861e-2 -0.38260335
vn -0.92372308 -1.8717861e-2 -0.38260335
vn -8.6037050e-2 -0.99565409 -3.5645013e-2
vn -8.6037050e-2 -0.99565409 -3.5645013e-2
vn -0.70700679 -1.8698228e-2 -0.70695952
vn -0.70700679 -1.8698228e-2 -0.70695952
vn -6.5854621e-2 -0.99565270 -6.5870135e-2
vn -6.5854621e-2 -0.99565270 -6.5870135e-2
vn -0.38264742 -1.8665563e-2 -0.92370588
vn -0.38264742 -1.8665563e-2 -0.92370588
vn -3.5639265e-2 -0.99565059 -8.6079886e-2
vn -3.5639265e-2 -0.99565059 -8.6079886e-2
vn -3.3131360e-5 -1.8628419e-2 -0.99982648
vn -3.3131360e-5 -1.8628419e-2 -0.99982648
vn 1.5745209e-5 -0.99564814 -9.3192223e-2
vn 1.5745209e-5 -0.99564814 -9.3192223e-2
vn 0.38258659 -1.8592443e-2 -0.92373255
vn 0.38258659 -1.8592443e-2 -0.92373255
vn 3.5685628e-2 -0.99564576 -8.6116527e-2
vn 3.5685628e-2 -0.99564576 -8.6116527e-2
vn 0.70696130 -1.8563109e-2 -0.70700858
vn 0.70696130 -1.8563109e-2 -0.70700858
vn 6.5935459e-2 -0.99564387 -6.5922694e-2
vn 6.5935459e-2 -0.99564387 -6.5922694e-2
vn 0.92371410 -1.8547923e-2 -0.38263330
vn 0.92371410 -1.8547923e-2 -0.38263330
vn 8.6152480e-2 -0.99564280 -3.5681327e-2
vn 8.6152480e-2 -0.99564280 -3.5681327e-2
vn 0.98677222 -0.16211291 3.1536546e-6
vn 0.98677222 -0.16211291 3.1536546e-6
vn 0.21596609 0.97640084 -2.1646115e-4
vn 0.21596609 0.97640084 -2.1646115e-4
vn 0.91165499 -0.16212204 0.37762629
vn 0.91165499 -0.16212204 0.37762629
vn 0.18899978 0.97855121 8.1955001e-2
vn 0.18899978 0.97855121 8.1955001e-2
vn 0.69774494 -0.16215061 0.69775295
vn 0.69774494 -0.16215061 0.69775295
vn 0.14249833 0.97878575 0.14721642
vn 0.14249833 0.97878575 0.14721642
vn 0.37761142 -0.16219115 0.91164886
vn 0.37761142 -0.16219115 0.91164886
vn 7.4805190e-2 0.97908359 0.18920760
vn 7.4805190e-2 0.97908359 0.18920760
vn -5.4102669e-6 -0.16223722 0.98675178
vn -5.4102669e-6 -0.16223722 0.98675178
vn -3.2740695e-3 0.97939693 0.20191815
vn -3.2740695e-3 0.97939693 0.20191815
vn -0.37761586 -0.16228181 0.91163089
vn -0.37761586 -0.16228181 0.91163089
vn -7.9771194e-2 0.97967836 0.18402954
vn -7.9771194e-2 0.97967836 0.18402954
vn -0.69773360 -0.16231822 0.69772532
vn -0.69773360 -0.16231822 0.69772532
vn -0.14341242 0.97988792 0.13875353
vn -0.14341242 0.97988792 0.13875353
vn -0.91162655 -0.16234136 0.37760073
vn -0.91162655 -0.16234136 0.37760073
vn -0.17828413 0.98123396 7.3448582e-2
vn -0.17828413 0.98123396 7.3448582e-2
vn -0.98673449 -0.16234238 -4.5541969e-6
vn -0.98673449 -0.16234238 -4.5541969e-6
vn -0.19282150 0.98123378 3.6264494e-4
vn -0.19282150 0.98123378 3.6264494e-4
vn -0.91162674 -0.16232905 -0.37760556
vn -0.91162674 -0.16232905 -0.37760556
vn -0.18559555 0.97988718 -7.3317149e-2
vn -0.18559555 0.97988718 -7.3317149e-2
vn -0.69773508 -0.16230444 -0.69772705
vn -0.69773508 -0.16230444 -0.69772705
vn -0.14412653 0.97967682 -0.13950226
vn -0.14412653 0.97967682 -0.13950226
vn -0.37761693 -0.16226389 -0.91163364
vn -0.37761693 -0.16226389 -0.91163364
vn -8.0298518e-2 0.97939475 -0.18530534
vn -8.0298518e-2 0.97939475 -0.18530534
vn -5.4103038e-6 -0.16221781 -0.98675498
vn -5.4103038e-6 -0.16221781 -0.98675498
vn -3.2966385e-3 0.97908120 -0.20344322
vn -3.2966385e-3 0.97908120 -0.20344322
vn 0.37761248 -0.16217322 -0.91165161
vn 0.37761248 -0.16217322 -0.91165161
vn 7.5315204e-2 0.97878360 -0.19055259
vn 7.5315204e-2 0.97878360 -0.19055259
vn 0.69774645 -0.16213689 -0.69775463
vn 0.69774645 -0.16213689 -0.69775463
vn 0.14325234 0.97854963 -0.14805199
vn 0.14325234 0.97854963 -0.14805199
vn 0.91165671 -0.16211795 -0.37762390
vn 0.91165671 -0.16211795 -0.37762390
vn 0.19961008 0.97640021 -8.2452646e-2
vn 0.19961008 0.97640021 -8.2452646e-2
vn 0.14264603 0.97944077 -0.14264603
vn 0.14264603 0.97944077 -0.14264603
vn 0.14264603 0.97944077 -0.14264603
vn 0.14264603 0.97944077 -0.14264603
vn 0.69435010 -0.18909225 -0.69435010
vn 0.69435010 -0.18909225 -0.69435010
vn -0.14264603 0.97944077 -0.14264603
vn -0.14264603 0.97944077 -0.14264603
vn -0.14264603 0.97944077 -0.14264603
vn -0.14264603 0.97944077 -0.14264603
vn -0.69435010 -0.18909225 -0.69435010
vn -0.69435010 -0.18909225 -0.69435010
vn -0.14264603 0.97944077 0.14264603
vn -0.14264603 0.97944077 0.14264603
vn -0.14264603 0.97944077 0.14264603
vn -0.14264603 0.97944077 0.14264603
vn -0.69435010 -0.18909225 0.69435010
vn -0.69435010 -0.18909225 0.69435010
vn 0.14264603 0.97944077 0.14264603
vn 0.14264603 0.97944077 0.14264603
vn 0.14264603 0.97944077 0.14264603
vn 0.14264603 0.97944077 0.14264603
vn 0.69435010 -0.18909225 0.69435010
vn 0.69435010 -0.18909225 0.69435010
vn 0.0000000e+0 1.00000000 0.0000000e+0
vn 0.0000000e+0 1.00000000 0.0000000e+0
vn 0.98693125 0.16114186 0.0000000e+0
vn 0.0000000e+0 0.0000000e+0 1.00000000
vn 0.0000000e+0 1.00000000 0.0000000e+0
vn 0.0000000e+0 1.00000000 0.0000000e+0
vn 0.98693125 0.16114186 0.0000000e+0
vn -6.5250505e-17 2.9933079e-32 -1.00000000
vn 0.0000000e+0 1.00000000 0.0000000e+0
vn 0.0000000e+0 1.00000000 0.0000000e+0
vn -6.5250505e-17 2.9933079e-32 -1.00000000
vn -0.98693125 0.16114186 0.0000000e+0
vn 0.0000000e+0 1.00000000 0.0000000e+0
vn 0.0000000e+0 1.00000000 0.0000000e+0
vn -0.98693125 0.16114186 0.0000000e+0
vn 0.0000000e+0 0.0000000e+0 1.00000000
vn 0.42790954 0.90382157 0.0000000e+0
vn 0.98693125 -0.16114186 0.0000000e+0
vn 0.0000000e+0 0.0000000e+0 1.00000000
vn 0.42790954 0.90382157 0.0000000e+0
vn 0.98693125 -0.16114186 0.0000000e+0
vn -8.0982463e-17 2.5098339e-17 -1.00000000
vn -8.0982463e-17 2.5098339e-17 -1.00000000
vn -0.98693125 -0.16114186 0.0000000e+0
vn -0.42790954 0.90382157 0.0000000e+0
vn -0.98693125 -0.16114186 0.0000000e+0
vn 0.0000000e+0 0.0000000e+0 1.00000000
vn -0.42790954 0.90382157 0.0000000e+0
vn -0.98693125 -0.16114186 0.0000000e+0
vn 0.0000000e+0 0.0000000e+0 1.00000000
vn 0.0000000e+0 0.0000000e+0 1.00000000
vn 0.0000000e+0 0.0000000e+0 1.00000000
vn 0.0000000e+0 1.00000000 0.0000000e+0
vn -0.98693125 0.16114186 0.0000000e+0
vn 0.0000000e+0 0.0000000e+0 1.00000000
vn 0.0000000e+0 0.0000000e+0 1.00000000
vn 0.0000000e+0 -1.00000000 0.0000000e+0
vn 0.0000000e+0 0.0000000e+0 1.00000000
vn -5.0971749e-17 8.3661132e-18 -1.00000000
vn -0.98693125 -0.16114186 0.0000000e+0
vn -5.0971749e-17 8.3661132e-18 -1.00000000
vn -5.0971749e-17 8.3661132e-18 -1.00000000
vn 0.0000000e+0 1.00000000 0.0000000e+0
vn -4.5727763e-17 9.9776930e-33 -1.00000000
vn -0.98693125 0.16114186 0.0000000e+0
vn -4.5727763e-17 9.9776930e-33 -1.00000000
vn -4.5727763e-17 9.9776930e-33 -1.00000000
vn 0.0000000e+0 -1.00000000 0.0000000e+0
vn 0.98693125 -0.16114186 0.0000000e+0
vn -5.0971749e-17 8.3661132e-18 -1.00000000
vn -5.0971749e-17 8.3661132e-18 -1.00000000
vn -5.0971749e-17 8.3661132e-18 -1.00000000
vn 0.0000000e+0 1.00000000 0.0000000e+0
vn 0.98693125 0.16114186 0.0000000e+0
vn -4.5727763e-17 9.9776930e-33 -1.00000000
vn -4.5727763e-17 9.9776930e-33 -1.00000000
vn 0.0000000e+0 -1.00000000 0.0000000e+0
vn -4.5727763e-17 9.9776930e-33 -1.00000000
vn 0.98693125 -0.16114186 0.0000000e+0
vn 0.0000000e+0 0.0000000e+0 1.00000000
vn 0.0000000e+0 0.0000000e+0 1.00000000
vn 0.0000000e+0 0.0000000e+0 1.00000000
vn 0.0000000e+0 1.00000000 0.0000000e+0
vn 0.98693125 0.16114186 0.0000000e+0
vn 0.0000000e+0 0.0000000e+0 1.00000000
vn 0.0000000e+0 0.0000000e+0 1.00000000
vn 0.0000000e+0 0.0000000e+0 1.00000000
vn 0.0000000e+0 -1.00000000 0.0000000e+0
vn -1.00000000 0.0000000e+0 0.0000000e+0
vn 0.0000000e+0 0.0000000e+0 -1.00000000
vn 0.0000000e+0 1.00000000 0.0000000e+0
vn -1.00000000 0.0000000e+0 0.0000000e+0
vn 0.0000000e+0 0.0000000e+0 -1.00000000
vn 0.0000000e+0 -1.00000000 0.0000000e+0
vn -1.00000000 0.0000000e+0 0.0000000e+0
vn 0.0000000e+0 -1.00000000 0.0000000e+0
vn 0.0000000e+0 0.0000000e+0 1.00000000
vn -1.00000000 0.0000000e+0 0.0000000e+0
vn 0.0000000e+0 0.0000000e+0 1.00000000
vn 0.0000000e+0 1.00000000 0.0000000e+0
vn 1.00000000 0.0000000e+0 0.0000000e+0
vn 0.0000000e+0 0.0000000e+0 1.00000000
vn 0.0000000e+0 1.00000000 0.0000000e+0
vn 1.00000000 0.0000000e+0 0.0000000e+0
vn 0.0000000e+0 0.0000000e+0 1.00000000
vn 0.0000000e+0 -1.00000000 0.0000000e+0
vn 1.00000000 0.0000000e+0 0.0000000e+0
vn 0.0000000e+0 -1.00000000 0.0000000e+0
vn 0.0000000e+0 0.0000000e+0 -1.00000000
vn 1.00000000 0.0000000e+0 0.0000000e+0
vn 0.0000000e+0 0.0000000e+0 -1.00000000
vn 0.0000000e+0 1.00000000 0.0000000e+0
vn 0.90301940 -0.21130046 0.37404288
vn 0.90301940 -0.21130046 0.37404288
vn 0.82138755 0.45778394 0.34022986
vn 0.82138755 0.45778394 0.34022986
vn 0.97742116 -0.21130046 1.2723878e-16
vn 0.97742116 -0.21130046 1.2723878e-16
vn 0.88906348 0.45778394 8.4558762e-17
vn 0.88906348 0.45778394 8.4558762e-17
vn 0.90301940 -0.21130046 -0.37404288
vn 0.90301940 -0.21130046 -0.37404288
vn 0.82138755 0.45778394 -0.34022986
vn 0.82138755 0.45778394 -0.34022986
vn 0.69114113 -0.21130046 -0.69114113
vn 0.69114113 -0.21130046 -0.69114113
vn 0.62866281 0.45778394 -0.62866281
vn 0.62866281 0.45778394 -0.62866281
vn 0.37404288 -0.21130046 -0.90301940
vn 0.37404288 -0.21130046 -0.90301940
vn 0.34022986 0.45778394 -0.82138755
vn 0.34022986 0.45778394 -0.82138755
vn -2.8275285e-17 -0.21130046 -0.97742116
vn -2.8275285e-17 -0.21130046 -0.97742116
vn -2.8186254e-16 0.45778394 -0.88906348
vn -2.8186254e-16 0.45778394 -0.88906348
vn -0.37404288 -0.21130046 -0.90301940
vn -0.37404288 -0.21130046 -0.90301940
vn -0.34022986 0.45778394 -0.82138755
vn -0.34022986 0.45778394 -0.82138755
vn -0.69114113 -0.21130046 -0.69114113
vn -0.69114113 -0.21130046 -0.69114113
vn -0.62866281 0.45778394 -0.62866281
vn -0.62866281 0.45778394 -0.62866281
vn -0.90301940 -0.21130046 -0.37404288
vn -0.90301940 -0.21130046 -0.37404288
vn -0.82138755 0.45778394 -0.34022986
vn -0.82138755 0.45778394 -0.34022986
vn -0.97742116 -0.21130046 -4.2412927e-17
vn -0.97742116 -0.21130046 -4.2412927e-17
vn -0.88906348 0.45778394 -4.2279381e-17
vn -0.88906348 0.45778394 -4.2279381e-17
vn -0.90301940 -0.21130046 0.37404288
vn -0.90301940 -0.21130046 0.37404288
vn -0.82138755 0.45778394 0.34022986
vn -0.82138755 0.45778394 0.34022986
vn -0.69114113 -0.21130046 0.69114113
vn -0.69114113 -0.21130046 0.69114113
vn -0.62866281 0.45778394 0.62866281
vn -0.62866281 0.45778394 0.62866281
vn -0.37404288 -0.21130046 0.90301940
vn -0.37404288 -0.21130046 0.90301940
vn -0.34022986 0.45778394 0.82138755
vn -0.34022986 0.45778394 0.82138755
vn 2.2620228e-16 -0.21130046 0.97742116
vn 2.2620228e-16 -0.21130046 0.97742116
vn 1.5502440e-16 0.45778394 0.88906348
vn 1.5502440e-16 0.45778394 0.88906348
vn 0.37404288 -0.21130046 0.90301940
vn 0.37404288 -0.21130046 0.90301940
vn 0.34022986 0.45778394 0.82138755
vn 0.34022986 0.45778394 0.82138755
vn 0.69114113 -0.21130046 0.69114113
vn 0.69114113 -0.21130046 0.69114113
vn 0.62866281 0.45778394 0.62866281
vn 0.62866281 0.45778394 0.62866281
vn 2.1496392e-16 1.00000000 0.0000000e+0
vn 0.0000000e+0 0.0000000e+0 1.00000000
vn 2.1496392e-16 1.00000000 0.0000000e+0
vn 2.1496392e-16 1.00000000 0.0000000e+0
vn -8.0982463e-17 2.5098339e-17 -1.00000000
vn 2.1496392e-16 1.00000000 0.0000000e+0
g cylinder1_copy2_default
usemtl default
s 1
f 2//456 3//459 4//462 5//465 6//468 7//471 8//474 9//477 10//480 11//483 12//486 13//489 14//492 15//495 16//498 1//453
f 17//501 193//113 197//117 18//505
f 18//506 197//117 201//121 19//510
f 19//509 201//121 205//125 20//513
f 20//514 205//125 209//129 21//518
f 21//517 209//129 213//133 22//522
f 22//521 213//133 217//137 23//525
f 23//526 217//137 221//141 24//530
f 24//529 221//141 225//145 25//533
f 25//534 225//145 229//149 26//538
f 26//537 229//149 233//153 27//542
f 27//541 233//153 237//157 28//545
f 28//546 237//157 241//161 29//550
f 29//549 241//161 245//165 30//553
f 30//554 245//165 249//169 31//557
f 31//558 249//169 253//173 32//562
f 32//561 253//173 193//113 17//502
f 33//1 35//3 131//51 129//49
f 34//2 192//112 190//110 36//4
f 35//3 33//1 34//2 36//4
f 35//3 37//5 133//53 131//51
f 36//4 38//6 37//5 35//3
f 36//4 190//110 188//108 38//6
f 37//5 39//7 135//55 133//53
f 38//6 40//8 39//7 37//5
f 38//6 188//108 186//106 40//8
f 39//7 41//9 137//57 135//55
f 40//8 42//10 41//9 39//7
f 40//8 186//106 184//104 42//10
f 41//9 43//11 139//59 137//57
f 42//10 44//12 43//11 41//9
f 42//10 184//104 182//102 44//12
f 43//11 45//13 141//61 139//59
f 44//12 46//14 45//13 43//11
f 44//12 182//102 180//100 46//14
f 45//13 47//15 143//63 141//61
f 46//14 48//16 47//15 45//13
f 46//14 180//100 178//98 48//16
f 47//15 49//17 145//65 143//63
f 48//16 50//18 49//17 47//15
f 48//16 178//98 176//96 50//18
f 49//17 51//19 147//67 145//65
f 50//18 52//20 51//19 49//17
f 50//18 176//96 174//94 52//20
f 51//19 53//21 149//69 147//67
f 52//20 54//22 53//21 51//19
f 52//20 174//94 172//92 54//22
f 53//21 55//23 151//71 149//69
f 54//22 56//24 55//23 53//21
f 54//22 172//92 170//90 56//24
f 55//23 57//25 153//73 151//71
f 56//24 58//26 57//25 55//23
f 56//24 170//90 168//88 58//26
f 57//25 59//27 155//75 153//73
f 58//26 60//28 59//27 57//25
f 58//26 168//88 166//86 60//28
f 59//27 61//29 157//77 155//75
f 60//28 62//30 61//29 59//27
f 60//28 166//86 164//84 62//30
f 61//29 63//31 159//79 157//77
f 62//30 64//32 63//31 61//29
f 62//30 164//84 162//82 64//32
f 64//32 34//2 33//1 63//31
f 64//32 162//82 192//112 34//2
f 65//566 66//570 189//109 191//111
f 66//569 67//574 187//107 189//109
f 67//573 68//578 185//105 187//107
f 68//577 69//582 183//103 185//105
f 69//581 70//586 181//101 183//103
f 70//585 71//590 179//99 181//101
f 71//589 72//594 177//97 179//99
f 72//593 73//598 175//95 177//97
f 73//597 74//602 173//93 175//95
f 74//601 75//606 171//91 173//93
f 75//605 76//610 169//89 171//91
f 76//609 77//614 167//87 169//89
f 77//613 78//618 165//85 167//87
f 78//617 79//622 163//83 165//85
f 79//621 80//626 161//81 163//83
f 97//629 349//813 351//817 98//633
f 98//634 351//818 321//757 99//637
f 99//638 321//758 323//761 100//641
f 100//642 323//762 325//765 101//645
f 101//646 325//766 327//769 102//649
f 102//650 327//770 329//773 103//653
f 103//654 329//774 331//777 104//657
f 104//658 331//778 333//781 105//661
f 105//662 333//782 335//785 106//665
f 106//666 335//786 337//789 107//669
f 107//670 337//790 339//793 108//673
f 108//674 339//794 341//797 109//677
f 109//678 341//798 343//801 110//681
f 110//682 343//802 345//805 111//685
f 111//686 345//806 347//809 112//689
f 112//690 347//810 349//814 97//630
f 113//694 594//1066 624//1126 128//754
f 114//697 596//1069 594//1065 113//693
f 115//701 598//1073 596//1070 114//698
f 116//705 600//1077 598//1074 115//702
f 117//709 602//1081 600//1078 116//706
f 118//713 604//1085 602//1082 117//710
f 119//717 606//1089 604//1086 118//714
f 120//721 608//1093 606//1090 119//718
f 121//725 610//1097 608//1094 120//722
f 122//729 612//1101 610//1098 121//726
f 123//733 614//1105 612//1102 122//730
f 124//737 616//1109 614//1106 123//734
f 125//741 618//1113 616//1110 124//738
f 126//745 620//1117 618//1114 125//742
f 127//749 622//1121 620//1118 126//746
f 128//753 624//1125 622//1122 127//750
f 129//49 131//51 132//52 130//50
f 129//49 159//79 63//31 33//1
f 130//50 132//52 198//118 194//114
f 130//50 160//80 159//79 129//49
f 132//52 134//54 202//122 198//118
f 133//53 135//55 136//56 134//54
f 134//54 132//52 131//51 133//53
f 134//54 136//56 206//126 202//122
f 136//56 138//58 210//130 206//126
f 137//57 139//59 140//60 138//58
f 138//58 136//56 135//55 137//57
f 138//58 140//60 214//134 210//130
f 139//59 141//61 142//62 140//60
f 140//60 142//62 218//138 214//134
f 142//62 144//64 222//142 218//138
f 143//63 145//65 146//66 144//64
f 144//64 142//62 141//61 143//63
f 144//64 146//66 226//146 222//142
f 145//65 147//67 148//68 146//66
f 146//66 148//68 230//150 226//146
f 148//68 150//70 234//154 230//150
f 150//70 148//68 147//67 149//69
f 150//70 152//72 238//158 234//154
f 151//71 153//73 154//74 152//72
f 152//72 150//70 149//69 151//71
f 152//72 154//74 242//162 238//158
f 153//73 155//75 156//76 154//74
f 154//74 156//76 246//166 242//162
f 156//76 158//78 250//170 246//166
f 157//77 159//79 160//80 158//78
f 158//78 156//76 155//75 157//77
f 158//78 160//80 254//174 250//170
f 161//81 191//111 192//112 162//82
f 162//82 164//84 163//83 161//81
f 164//84 166//86 165//85 163//83
f 166//86 168//88 167//87 165//85
f 168//88 170//90 169//89 167//87
f 170//90 172//92 171//91 169//89
f 172//92 174//94 173//93 171//91
f 174//94 176//96 175//95 173//93
f 176//96 178//98 177//97 175//95
f 178//98 180//100 179//99 177//97
f 180//100 182//102 181//101 179//99
f 182//102 184//104 183//103 181//101
f 184//104 186//106 185//105 183//103
f 186//106 188//108 187//107 185//105
f 188//108 190//110 189//109 187//107
f 190//110 192//112 191//111 189//109
f 191//111 161//81 80//625 65//565
f 193//113 253//173 254//174 194//114
f 194//114 198//118 197//117 193//113
f 194//114 254//174 160//80 130//50
f 198//118 202//122 201//121 197//117
f 202//122 206//126 205//125 201//121
f 209//129 205//125 206//126 210//130
f 210//130 214//134 213//133 209//129
f 217//137 213//133 214//134 218//138
f 218//138 222//142 221//141 217//137
f 225//145 221//141 222//142 226//146
f 226//146 230//150 229//149 225//145
f 233//153 229//149 230//150 234//154
f 234//154 238//158 237//157 233//153
f 238//158 242//162 241//161 237//157
f 245//165 241//161 242//162 246//166
f 246//166 250//170 249//169 245//165
f 253//173 249//169 250//170 254//174
f 353//823 368//884 400//288 385//273
f 354//827 386//274 387//275 355//831
f 355//832 387//275 388//276 356//836
f 356//835 388//276 389//277 357//839
f 357//840 389//277 390//278 358//843
f 358//844 390//278 391//279 359//848
f 359//847 391//279 392//280 360//852
f 360//851 392//280 393//281 361//855
f 361//856 393//281 394//282 362//860
f 362//859 394//282 395//283 363//863
f 363//864 395//283 396//284 364//867
f 364//868 396//284 397//285 365//872
f 365//871 397//285 398//286 366//876
f 366//875 398//286 399//287 367//879
f 367//880 399//287 400//288 368//883
f 385//273 386//274 354//828 353//824
f 385//273 400//288 448//320 433//305
f 386//274 434//306 435//307 387//275
f 387//275 435//307 436//308 388//276
f 388//276 436//308 437//309 389//277
f 389//277 437//309 438//310 390//278
f 390//278 438//310 439//311 391//279
f 391//279 439//311 440//312 392//280
f 392//280 440//312 441//313 393//281
f 393//281 441//313 442//314 394//282
f 394//282 442//314 443//315 395//283
f 395//283 443//315 444//316 396//284
f 396//284 444//316 445//317 397//285
f 397//285 445//317 446//318 398//286
f 398//286 446//318 447//319 399//287
f 399//287 447//319 448//320 400//288
f 401//289 416//304 432//947 417//887
f 402//290 403//291 454//326 452//324
f 402//290 418//892 419//896 403//291
f 403//291 404//292 456//328 454//326
f 403//291 419//895 420//899 404//292
f 404//292 405//293 458//330 456//328
f 404//292 420//900 421//904 405//293
f 405//293 406//294 460//332 458//330
f 405//293 421//903 422//907 406//294
f 406//294 407//295 462//334 460//332
f 406//294 422//908 423//911 407//295
f 407//295 408//296 464//336 462//334
f 407//295 423//912 424//915 408//296
f 408//296 409//297 466//338 464//336
f 408//296 424//916 425//920 409//297
f 409//297 410//298 468//340 466//338
f 409//297 425//919 426//924 410//298
f 410//298 411//299 470//342 468//340
f 410//298 426//923 427//927 411//299
f 411//299 412//300 472//344 470//342
f 411//299 427//928 428//931 412//300
f 412//300 413//301 474//346 472//344
f 412//300 428//932 429//935 413//301
f 413//301 414//302 476//348 474//346
f 413//301 429//936 430//939 414//302
f 414//302 415//303 478//350 476//348
f 414//302 430//940 431//943 415//303
f 415//303 416//304 480//352 478//350
f 415//303 431//944 432//948 416//304
f 416//304 401//289 450//322 480//352
f 417//888 418//891 402//290 401//289
f 433//305 434//306 386//274 385//273
f 433//305 448//320 512//384 482//354
f 434//306 484//356 486//358 435//307
f 435//307 486//358 488//360 436//308
f 436//308 488//360 490//362 437//309
f 437//309 490//362 492//364 438//310
f 438//310 492//364 494//366 439//311
f 439//311 494//366 496//368 440//312
f 440//312 496//368 498//370 441//313
f 441//313 498//370 500//372 442//314
f 442//314 500//372 502//374 443//315
f 443//315 502//374 504//376 444//316
f 444//316 504//376 506//378 445//317
f 445//317 506//378 508//380 446//318
f 446//318 508//380 510//382 447//319
f 447//319 510//382 512//384 448//320
f 449//321 479//351 480//352 450//322
f 450//322 452//324 451//323 449//321
f 451//323 453//325 485//357 483//355
f 452//324 450//322 401//289 402//290
f 452//324 454//326 453//325 451//323
f 453//325 455//327 487//359 485//357
f 455//327 453//325 454//326 456//328
f 455//327 457//329 489//361 487//359
f 456//328 458//330 457//329 455//327
f 457//329 459//331 491//363 489//361
f 459//331 457//329 458//330 460//332
f 459//331 461//333 493//365 491//363
f 460//332 462//334 461//333 459//331
f 461//333 463//335 495//367 493//365
f 463//335 461//333 462//334 464//336
f 463//335 465//337 497//369 495//367
f 464//336 466//338 465//337 463//335
f 465//337 467//339 499//371 497//369
f 467//339 465//337 466//338 468//340
f 467//339 469//341 501//373 499//371
f 468//340 470//342 469//341 467//339
f 469//341 471//343 503//375 501//373
f 470//342 472//344 471//343 469//341
f 471//343 473//345 505//377 503//375
f 472//344 474//346 473//345 471//343
f 473//345 475//347 507//379 505//377
f 475//347 473//345 474//346 476//348
f 475//347 477//349 509//381 507//379
f 476//348 478//350 477//349 475//347
f 477//349 479//351 511//383 509//381
f 479//351 449//321 481//353 511//383
f 479//351 477//349 478//350 480//352
f 481//353 483//355 484//356 482//354
f 482//354 484//356 434//306 433//305
f 482//354 512//384 511//383 481//353
f 483//355 481//353 449//321 451//323
f 485//357 487//359 488//360 486//358
f 486//358 484//356 483//355 485//357
f 487//359 489//361 490//362 488//360
f 489//361 491//363 492//364 490//362
f 493//365 495//367 496//368 494//366
f 494//366 492//364 491//363 493//365
f 497//369 499//371 500//372 498//370
f 498//370 496//368 495//367 497//369
f 499//371 501//373 502//374 500//372
f 503//375 505//377 506//378 504//376
f 504//376 502//374 501//373 503//375
f 505//377 507//379 508//380 506//378
f 509//381 511//383 512//384 510//382
f 510//382 508//380 507//379 509//381
f 570//979 582//1026 584//1036 569//975
f 573//990 583//1031 581//1021 574//993
f 575//996 579//1012 577//1001 576//998
f 578//1009 587//1048 586//1046 580//1020
f 590//1056 591//1059 592//1062 589//1053
s 2
f 1//455 195//115 199//119 2//458
f 2//457 199//119 203//123 3//461
f 3//460 203//123 207//127 4//464
f 4//463 207//127 211//131 5//467
f 5//466 211//131 215//135 6//470
f 6//469 215//135 219//139 7//473
f 7//472 219//139 223//143 8//476
f 8//475 223//143 227//147 9//479
f 9//478 227//147 231//151 10//482
f 10//481 231//151 235//155 11//485
f 11//484 235//155 239//159 12//488
f 12//487 239//159 243//163 13//491
f 13//490 243//163 247//167 14//494
f 14//493 247//167 251//171 15//497
f 15//496 251//171 255//175 16//500
f 16//499 255//175 195//115 1//454
f 17//503 18//508 200//120 196//116
f 19//512 20//516 208//128 204//124
f 21//520 22//524 216//136 212//132
f 22//523 23//527 220//140 216//136
f 24//532 25//536 228//148 224//144
f 26//539 27//543 236//156 232//152
f 27//544 28//548 240//160 236//156
f 29//552 30//555 248//168 244//164
f 30//556 31//560 252//172 248//168
f 65//568 81//33 82//34 66//572
f 66//571 82//34 83//35 67//576
f 67//575 83//35 84//36 68//580
f 68//579 84//36 85//37 69//584
f 69//583 85//37 86//38 70//588
f 70//587 86//38 87//39 71//592
f 71//591 87//39 88//40 72//596
f 72//595 88//40 89//41 73//600
f 73//599 89//41 90//42 74//604
f 74//603 90//42 91//43 75//608
f 75//607 91//43 92//44 76//612
f 76//611 92//44 93//45 77//616
f 77//615 93//45 94//46 78//620
f 78//619 94//46 95//47 79//624
f 79//623 95//47 96//48 80//628
f 80//627 96//48 81//33 65//567
f 81//33 352//256 350//255 82//34
f 82//34 350//255 348//254 83//35
f 83//35 348//254 346//253 84//36
f 84//36 346//253 344//252 85//37
f 85//37 344//252 342//251 86//38
f 86//38 342//251 340//250 87//39
f 87//39 340//250 338//249 88//40
f 88//40 338//249 336//248 89//41
f 89//41 336//248 334//247 90//42
f 90//42 334//247 332//246 91//43
f 91//43 332//246 330//245 92//44
f 92//44 330//245 328//244 93//45
f 93//45 328//244 326//243 94//46
f 94//46 326//243 324//242 95//47
f 95//47 324//242 322//241 96//48
f 96//48 322//241 352//256 81//33
f 97//632 258//178 288//208 112//691
f 98//636 260//180 258//178 97//631
f 99//639 262//182 260//180 98//635
f 100//644 264//184 262//182 99//640
f 101//647 266//186 264//184 100//643
f 102//652 268//188 266//186 101//648
f 103//656 270//190 268//188 102//651
f 104//659 272//192 270//190 103//655
f 105//663 274//194 272//192 104//660
f 106//668 276//196 274//194 105//664
f 107//671 278//198 276//196 106//667
f 108//676 280//200 278//198 107//672
f 109//680 282//202 280//200 108//675
f 110//683 284//204 282//202 109//679
f 111//687 286//206 284//204 110//684
f 112//692 288//208 286//206 111//688
f 113//695 290//210 292//212 114//700
f 114//699 292//212 294//214 115//703
f 115//704 294//214 296//216 116//707
f 116//708 296//216 298//218 117//712
f 117//711 298//218 300//220 118//716
f 118//715 300//220 302//222 119//719
f 119//720 302//222 304//224 120//723
f 120//724 304//224 306//226 121//728
f 121//727 306//226 308//228 122//731
f 122//732 308//228 310//230 123//736
f 123//735 310//230 312//232 124//740
f 124//739 312//232 314//234 125//743
f 125//744 314//234 316//236 126//748
f 126//747 316//236 318//238 127//751
f 127//752 318//238 320//240 128//755
f 128//756 320//240 290//210 113//696
f 195//115 255//175 256//176 196//116
f 196//116 200//120 199//119 195//115
f 196//116 256//176 32//564 17//504
f 203//123 199//119 200//120 204//124
f 204//124 200//120 18//507 19//511
f 204//124 208//128 207//127 203//123
f 211//131 207//127 208//128 212//132
f 212//132 208//128 20//515 21//519
f 212//132 216//136 215//135 211//131
f 216//136 220//140 219//139 215//135
f 223//143 219//139 220//140 224//144
f 224//144 220//140 23//528 24//531
f 224//144 228//148 227//147 223//143
f 231//151 227//147 228//148 232//152
f 232//152 228//148 25//535 26//540
f 232//152 236//156 235//155 231//151
f 239//159 235//155 236//156 240//160
f 240//160 244//164 243//163 239//159
f 244//164 240//160 28//547 29//551
f 244//164 248//168 247//167 243//163
f 248//168 252//172 251//171 247//167
f 255//175 251//171 252//172 256//176
f 256//176 252//172 31//559 32//563
f 257//177 259//179 291//211 289//209
f 257//177 287//207 288//208 258//178
f 258//178 260//180 259//179 257//177
f 259//179 261//181 293//213 291//211
f 260//180 262//182 261//181 259//179
f 261//181 263//183 295//215 293//213
f 263//183 261//181 262//182 264//184
f 263//183 265//185 297//217 295//215
f 264//184 266//186 265//185 263//183
f 265//185 267//187 299//219 297//217
f 267//187 265//185 266//186 268//188
f 267//187 269//189 301//221 299//219
f 268//188 270//190 269//189 267//187
f 269//189 271//191 303//223 301//221
f 270//190 272//192 271//191 269//189
f 271//191 273//193 305//225 303//223
f 272//192 274//194 273//193 271//191
f 273//193 275//195 307//227 305//225
f 275//195 273//193 274//194 276//196
f 275//195 277//197 309//229 307//227
f 276//196 278//198 277//197 275//195
f 277//197 279//199 311//231 309//229
f 279//199 277//197 278//198 280//200
f 279//199 281//201 313//233 311//231
f 280//200 282//202 281//201 279//199
f 281//201 283//203 315//235 313//233
f 282//202 284//204 283//203 281//201
f 283//203 285//205 317//237 315//235
f 284//204 286//206 285//205 283//203
f 285//205 287//207 319//239 317//237
f 287//207 285//205 286//206 288//208
f 289//209 291//211 292//212 290//210
f 289//209 319//239 287//207 257//177
f 290//210 320//240 319//239 289//209
f 291//211 293//213 294//214 292//212
f 293//213 295//215 296//216 294//214
f 297//217 299//219 300//220 298//218
f 298//218 296//216 295//215 297//217
f 299//219 301//221 302//222 300//220
f 301//221 303//223 304//224 302//222
f 305//225 307//227 308//228 306//226
f 306//226 304//224 303//223 305//225
f 309//229 311//231 312//232 310//230
f 310//230 308//228 307//227 309//229
f 311//231 313//233 314//234 312//232
f 315//235 317//237 318//238 316//236
f 316//236 314//234 313//233 315//235
f 317//237 319//239 320//240 318//238
f 321//759 351//819 384//272 369//257
f 324//242 367//878 368//882 322//241
f 326//243 366//873 367//877 324//242
f 328//244 365//869 366//874 326//243
f 330//245 364//866 365//870 328//244
f 332//246 363//862 364//865 330//245
f 334//247 362//857 363//861 332//246
f 336//248 361//853 362//858 334//247
f 338//249 360//850 361//854 336//248
f 340//250 359//846 360//849 338//249
f 342//251 358//841 359//845 340//250
f 344//252 357//838 358//842 342//251
f 346//253 356//833 357//837 344//252
f 348//254 355//829 356//834 346//253
f 350//255 354//826 355//830 348//254
f 352//256 322//241 368//881 353//822
f 353//821 354//825 350//255 352//256
f 369//257 370//258 323//763 321//760
f 369//257 384//272 544//416 514//386
f 370//258 371//259 325//768 323//764
f 371//259 372//260 327//772 325//767
f 372//260 373//261 329//775 327//771
f 373//261 374//262 331//780 329//776
f 374//262 375//263 333//783 331//779
f 375//263 376//264 335//788 333//784
f 376//264 377//265 337//792 335//787
f 377//265 378//266 339//795 337//791
f 378//266 379//267 341//800 339//796
f 379//267 380//268 343//803 341//799
f 380//268 381//269 345//808 343//804
f 381//269 382//270 347//811 345//807
f 382//270 383//271 349//815 347//812
f 383//271 384//272 351//820 349//816
f 417//886 432//946 513//385 543//415
f 418//889 541//413 539//411 419//893
f 419//894 539//411 537//409 420//898
f 420//897 537//409 535//407 421//901
f 421//902 535//407 533//405 422//906
f 422//905 533//405 531//403 423//909
f 423//910 531//403 529//401 424//914
f 424//913 529//401 527//399 425//917
f 425//918 527//399 525//397 426//922
f 426//921 525//397 523//395 427//925
f 427//926 523//395 521//393 428//929
f 428//930 521//393 519//391 429//934
f 429//933 519//391 517//389 430//938
f 430//937 517//389 515//387 431//941
f 431//942 515//387 513//385 432//945
f 513//385 515//387 516//388 514//386
f 514//386 516//388 370//258 369//257
f 514//386 544//416 543//415 513//385
f 515//387 517//389 518//390 516//388
f 516//388 518//390 371//259 370//258
f 518//390 520//392 372//260 371//259
f 519//391 521//393 522//394 520//392
f 520//392 518//390 517//389 519//391
f 520//392 522//394 373//261 372//260
f 521//393 523//395 524//396 522//394
f 522//394 524//396 374//262 373//261
f 524//396 526//398 375//263 374//262
f 525//397 527//399 528//400 526//398
f 526//398 524//396 523//395 525//397
f 526//398 528//400 376//264 375//263
f 527//399 529//401 530//402 528//400
f 528//400 530//402 377//265 376//264
f 530//402 532//404 378//266 377//265
f 531//403 533//405 534//406 532//404
f 532//404 530//402 529//401 531//403
f 532//404 534//406 379//267 378//266
f 534//406 536//408 380//268 379//267
f 535//407 537//409 538//410 536//408
f 536//408 534//406 533//405 535//407
f 536//408 538//410 381//269 380//268
f 537//409 539//411 540//412 538//410
f 538//410 540//412 382//270 381//269
f 540//412 542//414 383//271 382//270
f 541//413 543//415 544//416 542//414
f 542//414 540//412 539//411 541//413
f 542//414 544//416 384//272 383//271
f 543//415 541//413 418//890 417//885
f 545//417 593//437 595//438 546//418
f 546//418 547//419 548//952 560//970 545//417
f 546//418 595//438 597//439 547//419
f 547//419 597//439 599//440 548//949
f 548//950 599//440 601//441 549//420
f 549//420 550//421 551//422 552//958 548//951
f 549//420 601//441 603//442 550//421
f 550//421 603//442 605//443 551//422
f 551//422 605//443 607//444 552//955
f 552//956 607//444 609//445 553//423
f 553//423 554//424 555//425 556//964 552//957
f 553//423 609//445 611//446 554//424
f 554//424 611//446 613//447 555//425
f 555//425 613//447 615//448 556//961
f 556//962 615//448 617//449 557//426
f 557//426 558//427 559//428 560//969 556//963
f 557//426 617//449 619//450 558//427
f 558//427 619//450 621//451 559//428
f 559//428 621//451 623//452 560//967
f 560//968 623//452 593//437 545//417
f 572//987 578//1006 580//1017 571//984
f 574//992 626//1132 625//1129 573//989
f 575//997 576//1000 625//1131 626//1134
f 582//1029 591//1060 590//1058 584//1040
f 583//1035 589//1055 592//1064 581//1025
f 586//1044 587//1047 588//1050 585//1041
f 593//437 623//452 624//1127 594//1067
f 594//1068 596//1071 595//438 593//437
f 596//1072 598//1076 597//439 595//438
f 598//1075 600//1079 599//440 597//439
f 600//1080 602//1084 601//441 599//440
f 602//1083 604//1087 603//442 601//441
f 604//1088 606//1092 605//443 603//442
f 606//1091 608//1095 607//444 605//443
f 608//1096 610//1099 609//445 607//444
f 610//1100 612//1104 611//446 609//445
f 612//1103 614//1107 613//447 611//446
f 614//1108 616//1112 615//448 613//447
f 616//1111 618//1115 617//449 615//448
f 618//1116 620//1119 619//450 617//449
f 620//1120 622//1123 621//451 619//450
f 622//1124 624//1128 623//452 621//451
s 3
f 548//953 562//430 561//429 560//971
f 552//959 563//431 562//430 548//954
f 556//965 564//432 563//431 552//960
f 560//972 561//429 564//432 556//966
f 561//429 565//433 568//436 564//432
f 562//430 566//434 565//433 561//429
f 563//431 567//435 566//434 562//430
f 564//432 568//436 567//435 563//431
f 565//433 569//974 572//986 568//436
f 566//434 570//977 569//973 565//433
f 567//435 571//981 570//978 566//434
f 568//436 572//985 571//982 567//435
f 579//1015 585//1043 588//1052 577//1005
s 4
f 569//976 584//1037 578//1007 572//988
f 571//983 580//1016 582//1027 570//980
f 577//1004 588//1051 587//1049 578//1010
f 579//1013 581//1023 582//1028 580//1018
f 580//1019 586//1045 585//1042 579//1014
f 581//1024 592//1063 591//1061 582//1030
f 583//1033 577//1003 578//1008 584//1038
f 584//1039 590//1057 589//1054 583//1034
f 625//1130 576//999 577//1002 583//1032 573//991
f 626//1133 574//994 581//1022 579//1011 575//995
